<svg xmlns="http://www.w3.org/2000/svg" xmlns:xlink="http://www.w3.org/1999/xlink" width="500" zoomAndPan="magnify" viewBox="0 0 375 374.999991" height="500" preserveAspectRatio="xMidYMid meet" version="1.0"><defs><clipPath id="2c8d0dfd5f"><path d="M 171 135 L 374 135 L 374 274 L 171 274 Z M 171 135 " clip-rule="nonzero"/></clipPath><clipPath id="8fefad9e33"><path d="M 373.960938 166.890625 L 190.09375 273.902344 L 171.988281 242.796875 L 355.855469 135.78125 Z M 373.960938 166.890625 " clip-rule="nonzero"/></clipPath><clipPath id="56c49d6a02"><path d="M 373.960938 166.890625 L 190.09375 273.902344 L 171.988281 242.796875 L 355.855469 135.78125 Z M 373.960938 166.890625 " clip-rule="nonzero"/></clipPath><clipPath id="b5850cffe6"><path d="M 4 135 L 206 135 L 206 274 L 4 274 Z M 4 135 " clip-rule="nonzero"/></clipPath><clipPath id="bcd8c6e281"><path d="M 22.375 135.78125 L 205.726562 242.820312 L 187.582031 273.902344 L 4.230469 166.867188 Z M 22.375 135.78125 " clip-rule="nonzero"/></clipPath><clipPath id="ab1b82bef7"><path d="M 22.375 135.78125 L 205.726562 242.820312 L 187.582031 273.902344 L 4.230469 166.867188 Z M 22.375 135.78125 " clip-rule="nonzero"/></clipPath><clipPath id="7407cdd937"><path d="M 134.25 242.503906 L 243.75 242.503906 L 243.75 275.703125 L 134.25 275.703125 Z M 134.25 242.503906 " clip-rule="nonzero"/></clipPath><clipPath id="4f765507d0"><path d="M 189 275.703125 L 243.75 242.503906 L 134.25 242.503906 Z M 189 275.703125 " clip-rule="nonzero"/></clipPath></defs><g clip-path="url(#2c8d0dfd5f)"><g clip-path="url(#8fefad9e33)"><g clip-path="url(#56c49d6a02)"><path fill="#b48fc6" d="M 373.960938 166.890625 L 190.09375 273.902344 L 171.988281 242.796875 L 355.855469 135.78125 Z M 373.960938 166.890625 " fill-opacity="1" fill-rule="nonzero"/></g></g></g><g clip-path="url(#b5850cffe6)"><g clip-path="url(#bcd8c6e281)"><g clip-path="url(#ab1b82bef7)"><path fill="#b48fc6" d="M 22.375 135.78125 L 205.726562 242.820312 L 187.582031 273.902344 L 4.230469 166.867188 Z M 22.375 135.78125 " fill-opacity="1" fill-rule="nonzero"/></g></g></g><g clip-path="url(#7407cdd937)"><g clip-path="url(#4f765507d0)"><path fill="#b48fc6" d="M 134.25 242.503906 L 243.75 242.503906 L 243.75 275.703125 L 134.25 275.703125 Z M 134.25 242.503906 " fill-opacity="1" fill-rule="nonzero"/></g></g></svg>