<svg xmlns="http://www.w3.org/2000/svg" xmlns:xlink="http://www.w3.org/1999/xlink" width="500" zoomAndPan="magnify" viewBox="0 0 375 374.999991" height="500" preserveAspectRatio="xMidYMid meet" version="1.0"><defs><clipPath id="id1"><path d="M 171 135 L 374 135 L 374 275 L 171 275 Z M 171 135 " clip-rule="nonzero"/></clipPath><clipPath id="id2"><path d="M 373.960938 166.890625 L 189.867188 274.03125 L 171.761719 242.917969 L 355.851562 135.773438 Z M 373.960938 166.890625 " clip-rule="nonzero"/></clipPath><clipPath id="id3"><path d="M 4 135 L 206 135 L 206 274 L 4 274 Z M 4 135 " clip-rule="nonzero"/></clipPath><clipPath id="id4"><path d="M 22.375 135.78125 L 205.675781 242.789062 L 187.527344 273.878906 L 4.222656 166.875 Z M 22.375 135.78125 " clip-rule="nonzero"/></clipPath><clipPath id="id5"><path d="M 134.25 242.503906 L 243.75 242.503906 L 243.75 275.503906 L 134.25 275.503906 Z M 134.25 242.503906 " clip-rule="nonzero"/></clipPath></defs><g clip-path="url(#id1)"><g clip-path="url(#id2)"><path fill="#f6bebb" d="M 373.957031 166.890625 L 189.871094 274.03125 L 171.761719 242.917969 L 355.847656 135.777344 L 373.957031 166.890625 " fill-opacity="1" fill-rule="nonzero"/></g></g><g clip-path="url(#id3)"><g clip-path="url(#id4)"><path fill="#f6bebb" d="M 22.378906 135.785156 L 205.671875 242.785156 L 187.519531 273.875 L 4.230469 166.875 L 22.378906 135.785156 " fill-opacity="1" fill-rule="nonzero"/></g></g><g clip-path="url(#id5)"><path fill="#f6bebb" d="M 189 275.503906 L 243.75 242.503906 L 134.25 242.503906 L 189 275.503906 " fill-opacity="1" fill-rule="nonzero"/></g></svg>