<svg xmlns="http://www.w3.org/2000/svg" xmlns:xlink="http://www.w3.org/1999/xlink" width="500" zoomAndPan="magnify" viewBox="0 0 375 374.999991" height="500" preserveAspectRatio="xMidYMid meet" version="1.0"><defs><clipPath id="0936a0670a"><path d="M 171 135 L 374 135 L 374 274 L 171 274 Z M 171 135 " clip-rule="nonzero"/></clipPath><clipPath id="ecd9be742b"><path d="M 373.960938 166.890625 L 190.09375 273.902344 L 171.988281 242.796875 L 355.855469 135.78125 Z M 373.960938 166.890625 " clip-rule="nonzero"/></clipPath><clipPath id="f186bf7b63"><path d="M 373.960938 166.890625 L 190.09375 273.902344 L 171.988281 242.796875 L 355.855469 135.78125 Z M 373.960938 166.890625 " clip-rule="nonzero"/></clipPath><clipPath id="00f9171dd9"><path d="M 4 135 L 206 135 L 206 274 L 4 274 Z M 4 135 " clip-rule="nonzero"/></clipPath><clipPath id="2a2c482457"><path d="M 22.375 135.78125 L 205.726562 242.820312 L 187.582031 273.902344 L 4.230469 166.867188 Z M 22.375 135.78125 " clip-rule="nonzero"/></clipPath><clipPath id="8e1bb7a7bf"><path d="M 22.375 135.78125 L 205.726562 242.820312 L 187.582031 273.902344 L 4.230469 166.867188 Z M 22.375 135.78125 " clip-rule="nonzero"/></clipPath><clipPath id="fe1d14004c"><path d="M 134.25 242.503906 L 243.75 242.503906 L 243.75 275.703125 L 134.25 275.703125 Z M 134.25 242.503906 " clip-rule="nonzero"/></clipPath><clipPath id="d3b7d3d5ab"><path d="M 189 275.703125 L 243.75 242.503906 L 134.25 242.503906 Z M 189 275.703125 " clip-rule="nonzero"/></clipPath></defs><g clip-path="url(#0936a0670a)"><g clip-path="url(#ecd9be742b)"><g clip-path="url(#f186bf7b63)"><path fill="#ca7d6c" d="M 373.960938 166.890625 L 190.09375 273.902344 L 171.988281 242.796875 L 355.855469 135.78125 Z M 373.960938 166.890625 " fill-opacity="1" fill-rule="nonzero"/></g></g></g><g clip-path="url(#00f9171dd9)"><g clip-path="url(#2a2c482457)"><g clip-path="url(#8e1bb7a7bf)"><path fill="#ca7d6c" d="M 22.375 135.78125 L 205.726562 242.820312 L 187.582031 273.902344 L 4.230469 166.867188 Z M 22.375 135.78125 " fill-opacity="1" fill-rule="nonzero"/></g></g></g><g clip-path="url(#fe1d14004c)"><g clip-path="url(#d3b7d3d5ab)"><path fill="#ca7d6c" d="M 134.25 242.503906 L 243.75 242.503906 L 243.75 275.703125 L 134.25 275.703125 Z M 134.25 242.503906 " fill-opacity="1" fill-rule="nonzero"/></g></g></svg>