<svg xmlns="http://www.w3.org/2000/svg" xmlns:xlink="http://www.w3.org/1999/xlink" width="500" zoomAndPan="magnify" viewBox="0 0 375 374.999991" height="500" preserveAspectRatio="xMidYMid meet" version="1.0"><defs><clipPath id="70c78b2ff0"><path d="M 170 174 L 298 174 L 298 270 L 170 270 Z M 170 174 " clip-rule="nonzero"/></clipPath><clipPath id="ae49a8b70d"><path d="M 297.765625 205.929688 L 188.53125 269.503906 L 170.425781 238.398438 L 279.664062 174.820312 Z M 297.765625 205.929688 " clip-rule="nonzero"/></clipPath><clipPath id="ac08938e44"><path d="M 297.765625 205.929688 L 188.605469 269.460938 L 170.503906 238.355469 L 279.664062 174.820312 Z M 297.765625 205.929688 " clip-rule="nonzero"/></clipPath><clipPath id="53bb6303f1"><path d="M 77 174 L 205 174 L 205 270 L 77 270 Z M 77 174 " clip-rule="nonzero"/></clipPath><clipPath id="bf0acaa4e2"><path d="M 95.367188 174.824219 L 204.277344 238.402344 L 186.132812 269.484375 L 77.222656 205.90625 Z M 95.367188 174.824219 " clip-rule="nonzero"/></clipPath><clipPath id="1d6aa80793"><path d="M 95.367188 174.824219 L 204.238281 238.378906 L 186.09375 269.460938 L 77.222656 205.90625 Z M 95.367188 174.824219 " clip-rule="nonzero"/></clipPath><clipPath id="b61fc92081"><path d="M 132.761719 238.0625 L 242.347656 238.0625 L 242.347656 271.261719 L 132.761719 271.261719 Z M 132.761719 238.0625 " clip-rule="nonzero"/></clipPath><clipPath id="cfa83b90b0"><path d="M 187.511719 271.261719 L 242.261719 238.0625 L 132.761719 238.0625 Z M 187.511719 271.261719 " clip-rule="nonzero"/></clipPath><clipPath id="1f0f40398b"><path d="M 169.617188 13.472656 L 205.605469 13.472656 L 205.605469 249.476562 L 169.617188 249.476562 Z M 169.617188 13.472656 " clip-rule="nonzero"/></clipPath><clipPath id="f818e37e3d"><path d="M 0 329.117188 L 375 329.117188 L 375 365.109375 L 0 365.109375 Z M 0 329.117188 " clip-rule="nonzero"/></clipPath><clipPath id="b18013ac54"><path d="M 339.007812 271.257812 L 375 271.257812 L 375 348.511719 L 339.007812 348.511719 Z M 339.007812 271.257812 " clip-rule="nonzero"/></clipPath><clipPath id="8e5da228d4"><path d="M 0 271.257812 L 35.988281 271.257812 L 35.988281 348.511719 L 0 348.511719 Z M 0 271.257812 " clip-rule="nonzero"/></clipPath></defs><g clip-path="url(#70c78b2ff0)"><g clip-path="url(#ae49a8b70d)"><g clip-path="url(#ac08938e44)"><path fill="#e5fcff" d="M 297.765625 205.929688 L 188.652344 269.433594 L 170.550781 238.328125 L 279.664062 174.820312 Z M 297.765625 205.929688 " fill-opacity="1" fill-rule="nonzero"/></g></g></g><g clip-path="url(#53bb6303f1)"><g clip-path="url(#bf0acaa4e2)"><g clip-path="url(#1d6aa80793)"><path fill="#e5fcff" d="M 95.367188 174.824219 L 204.277344 238.402344 L 186.132812 269.484375 L 77.222656 205.90625 Z M 95.367188 174.824219 " fill-opacity="1" fill-rule="nonzero"/></g></g></g><g clip-path="url(#b61fc92081)"><g clip-path="url(#cfa83b90b0)"><path fill="#e5fcff" d="M 132.761719 238.0625 L 242.21875 238.0625 L 242.21875 271.261719 L 132.761719 271.261719 Z M 132.761719 238.0625 " fill-opacity="1" fill-rule="nonzero"/></g></g><g clip-path="url(#1f0f40398b)"><path fill="#e5fcff" d="M 205.605469 13.472656 L 205.605469 249.519531 L 169.617188 249.519531 L 169.617188 13.472656 Z M 205.605469 13.472656 " fill-opacity="1" fill-rule="nonzero"/></g><g clip-path="url(#f818e37e3d)"><path fill="#e5fcff" d="M 375 365.109375 L 0.0507812 365.109375 L 0.0507812 329.117188 L 375 329.117188 Z M 375 365.109375 " fill-opacity="1" fill-rule="nonzero"/></g><g clip-path="url(#b18013ac54)"><path fill="#e5fcff" d="M 375 271.257812 L 375 348.441406 L 339.007812 348.441406 L 339.007812 271.257812 Z M 375 271.257812 " fill-opacity="1" fill-rule="nonzero"/></g><g clip-path="url(#8e5da228d4)"><path fill="#e5fcff" d="M 35.988281 271.257812 L 35.988281 348.441406 L 0 348.441406 L 0 271.257812 Z M 35.988281 271.257812 " fill-opacity="1" fill-rule="nonzero"/></g></svg>