<svg xmlns="http://www.w3.org/2000/svg" xmlns:xlink="http://www.w3.org/1999/xlink" width="500" zoomAndPan="magnify" viewBox="0 0 375 374.999991" height="500" preserveAspectRatio="xMidYMid meet" version="1.0"><defs><clipPath id="ecfbf170a9"><path d="M 4 10 L 365 10 L 365 371 L 4 371 Z M 4 10 " clip-rule="nonzero"/></clipPath><clipPath id="21c0bad49a"><path d="M 4.738281 326.542969 L 321.335938 9.945312 L 365.050781 53.660156 L 48.453125 370.257812 Z M 4.738281 326.542969 " clip-rule="nonzero"/></clipPath><clipPath id="6de6e03616"><path d="M 4.738281 326.542969 L 321.175781 10.105469 L 364.890625 53.820312 L 48.453125 370.257812 Z M 4.738281 326.542969 " clip-rule="nonzero"/></clipPath><clipPath id="d37122782b"><path d="M 103.15625 10.109375 L 364.890625 10.109375 L 364.890625 71.886719 L 103.15625 71.886719 Z M 103.15625 10.109375 " clip-rule="nonzero"/></clipPath><clipPath id="a7c379e446"><path d="M 303.113281 10.097656 L 364.890625 10.097656 L 364.890625 271.835938 L 303.113281 271.835938 Z M 303.113281 10.097656 " clip-rule="nonzero"/></clipPath></defs><g clip-path="url(#ecfbf170a9)"><g clip-path="url(#21c0bad49a)"><g clip-path="url(#6de6e03616)"><path fill="#b48fc6" d="M 4.738281 326.542969 L 321.164062 10.117188 L 364.878906 53.832031 L 48.453125 370.257812 Z M 4.738281 326.542969 " fill-opacity="1" fill-rule="nonzero"/></g></g></g><g clip-path="url(#d37122782b)"><path fill="#b48fc6" d="M 103.15625 10.109375 L 364.992188 10.109375 L 364.992188 71.886719 L 103.15625 71.886719 Z M 103.15625 10.109375 " fill-opacity="1" fill-rule="nonzero"/></g><g clip-path="url(#a7c379e446)"><path fill="#b48fc6" d="M 303.113281 271.835938 L 303.113281 10 L 364.890625 10 L 364.890625 271.835938 Z M 303.113281 271.835938 " fill-opacity="1" fill-rule="nonzero"/></g></svg>