<svg id="visual" viewBox="0 0 900 450" width="900" height="450" xmlns="http://www.w3.org/2000/svg" xmlns:xlink="http://www.w3.org/1999/xlink" version="1.1"><path d="M0 115L30 126.2C60 137.3 120 159.7 180 162.3C240 165 300 148 360 130C420 112 480 93 540 94.2C600 95.3 660 116.7 720 119.8C780 123 840 108 870 100.5L900 93L900 451L870 451C840 451 780 451 720 451C660 451 600 451 540 451C480 451 420 451 360 451C300 451 240 451 180 451C120 451 60 451 30 451L0 451Z" fill="#e5fcff"></path><path d="M0 102L30 110.3C60 118.7 120 135.3 180 158C240 180.7 300 209.3 360 216.5C420 223.7 480 209.3 540 191.2C600 173 660 151 720 143.2C780 135.3 840 141.7 870 144.8L900 148L900 451L870 451C840 451 780 451 720 451C660 451 600 451 540 451C480 451 420 451 360 451C300 451 240 451 180 451C120 451 60 451 30 451L0 451Z" fill="#c8e0e8"></path><path d="M0 264L30 244C60 224 120 184 180 160.5C240 137 300 130 360 136.2C420 142.3 480 161.7 540 161.8C600 162 660 143 720 155.3C780 167.7 840 211.3 870 233.2L900 255L900 451L870 451C840 451 780 451 720 451C660 451 600 451 540 451C480 451 420 451 360 451C300 451 240 451 180 451C120 451 60 451 30 451L0 451Z" fill="#adc4d1"></path><path d="M0 192L30 197.3C60 202.7 120 213.3 180 209.2C240 205 300 186 360 193C420 200 480 233 540 253C600 273 660 280 720 273.5C780 267 840 247 870 237L900 227L900 451L870 451C840 451 780 451 720 451C660 451 600 451 540 451C480 451 420 451 360 451C300 451 240 451 180 451C120 451 60 451 30 451L0 451Z" fill="#95a8ba"></path><path d="M0 213L30 230C60 247 120 281 180 298.3C240 315.7 300 316.3 360 311.8C420 307.3 480 297.7 540 281.2C600 264.7 660 241.3 720 238.2C780 235 840 252 870 260.5L900 269L900 451L870 451C840 451 780 451 720 451C660 451 600 451 540 451C480 451 420 451 360 451C300 451 240 451 180 451C120 451 60 451 30 451L0 451Z" fill="#808da2"></path><path d="M0 257L30 256.5C60 256 120 255 180 262.2C240 269.3 300 284.7 360 284.5C420 284.3 480 268.7 540 257.3C600 246 660 239 720 238.3C780 237.7 840 243.3 870 246.2L900 249L900 451L870 451C840 451 780 451 720 451C660 451 600 451 540 451C480 451 420 451 360 451C300 451 240 451 180 451C120 451 60 451 30 451L0 451Z" fill="#6e7289"></path><path d="M0 269L30 271.5C60 274 120 279 180 286.8C240 294.7 300 305.3 360 317.3C420 329.3 480 342.7 540 342.3C600 342 660 328 720 314.3C780 300.7 840 287.3 870 280.7L900 274L900 451L870 451C840 451 780 451 720 451C660 451 600 451 540 451C480 451 420 451 360 451C300 451 240 451 180 451C120 451 60 451 30 451L0 451Z" fill="#5e5770"></path><path d="M0 341L30 346.5C60 352 120 363 180 368.5C240 374 300 374 360 368C420 362 480 350 540 346.5C600 343 660 348 720 353.5C780 359 840 365 870 368L900 371L900 451L870 451C840 451 780 451 720 451C660 451 600 451 540 451C480 451 420 451 360 451C300 451 240 451 180 451C120 451 60 451 30 451L0 451Z" fill="#4f3e55"></path><path d="M0 375L30 375.8C60 376.7 120 378.3 180 381.2C240 384 300 388 360 385.5C420 383 480 374 540 368.2C600 362.3 660 359.7 720 363.3C780 367 840 377 870 382L900 387L900 451L870 451C840 451 780 451 720 451C660 451 600 451 540 451C480 451 420 451 360 451C300 451 240 451 180 451C120 451 60 451 30 451L0 451Z" fill="#3f263a"></path><path d="M0 428L30 428C60 428 120 428 180 426C240 424 300 420 360 414.7C420 409.3 480 402.7 540 397.7C600 392.7 660 389.3 720 387C780 384.7 840 383.3 870 382.7L900 382L900 451L870 451C840 451 780 451 720 451C660 451 600 451 540 451C480 451 420 451 360 451C300 451 240 451 180 451C120 451 60 451 30 451L0 451Z" fill="#2e0f1f"></path></svg>