<svg version="1.1" xmlns:xlink="http://www.w3.org/1999/xlink" xmlns="http://www.w3.org/2000/svg" viewBox="2.4 163.20000000000002 895.2 421.2" id="visual" style="max-height: 500px" width="895.2" height="421.2"><rect fill="#B48FC6" height="600" width="900" y="0" x="0"/><path fill="#b48fc6" d="M0 220L21.5 218.2C43 216.3 86 212.7 128.8 210.7C171.7 208.7 214.3 208.3 257.2 197.5C300 186.7 343 165.3 385.8 152C428.7 138.7 471.3 133.3 514.2 141.2C557 149 600 170 642.8 171.5C685.7 173 728.3 155 771.2 145.5C814 136 857 135 878.5 134.5L900 134L900 601L878.5 601C857 601 814 601 771.2 601C728.3 601 685.7 601 642.8 601C600 601 557 601 514.2 601C471.3 601 428.7 601 385.8 601C343 601 300 601 257.2 601C214.3 601 171.7 601 128.8 601C86 601 43 601 21.5 601L0 601Z"/><path fill="#a47dae" d="M0 270L21.5 260.8C43 251.7 86 233.3 128.8 233.5C171.7 233.7 214.3 252.3 257.2 247.8C300 243.3 343 215.7 385.8 200.5C428.7 185.3 471.3 182.7 514.2 180.2C557 177.7 600 175.3 642.8 187.3C685.7 199.3 728.3 225.7 771.2 232.3C814 239 857 226 878.5 219.5L900 213L900 601L878.5 601C857 601 814 601 771.2 601C728.3 601 685.7 601 642.8 601C600 601 557 601 514.2 601C471.3 601 428.7 601 385.8 601C343 601 300 601 257.2 601C214.3 601 171.7 601 128.8 601C86 601 43 601 21.5 601L0 601Z"/><path fill="#946b96" d="M0 213L21.5 228.7C43 244.3 86 275.7 128.8 292.7C171.7 309.7 214.3 312.3 257.2 302.2C300 292 343 269 385.8 261.2C428.7 253.3 471.3 260.7 514.2 263.8C557 267 600 266 642.8 257.7C685.7 249.3 728.3 233.7 771.2 239.7C814 245.7 857 273.3 878.5 287.2L900 301L900 601L878.5 601C857 601 814 601 771.2 601C728.3 601 685.7 601 642.8 601C600 601 557 601 514.2 601C471.3 601 428.7 601 385.8 601C343 601 300 601 257.2 601C214.3 601 171.7 601 128.8 601C86 601 43 601 21.5 601L0 601Z"/><path fill="#835980" d="M0 301L21.5 311.3C43 321.7 86 342.3 128.8 343.3C171.7 344.3 214.3 325.7 257.2 320.7C300 315.7 343 324.3 385.8 333C428.7 341.7 471.3 350.3 514.2 346.7C557 343 600 327 642.8 318.7C685.7 310.3 728.3 309.7 771.2 318.8C814 328 857 347 878.5 356.5L900 366L900 601L878.5 601C857 601 814 601 771.2 601C728.3 601 685.7 601 642.8 601C600 601 557 601 514.2 601C471.3 601 428.7 601 385.8 601C343 601 300 601 257.2 601C214.3 601 171.7 601 128.8 601C86 601 43 601 21.5 601L0 601Z"/><path fill="#72496a" d="M0 353L21.5 355C43 357 86 361 128.8 358C171.7 355 214.3 345 257.2 343.3C300 341.7 343 348.3 385.8 351.5C428.7 354.7 471.3 354.3 514.2 350.5C557 346.7 600 339.3 642.8 338.8C685.7 338.3 728.3 344.7 771.2 341.7C814 338.7 857 326.3 878.5 320.2L900 314L900 601L878.5 601C857 601 814 601 771.2 601C728.3 601 685.7 601 642.8 601C600 601 557 601 514.2 601C471.3 601 428.7 601 385.8 601C343 601 300 601 257.2 601C214.3 601 171.7 601 128.8 601C86 601 43 601 21.5 601L0 601Z"/><path fill="#613955" d="M0 368L21.5 376C43 384 86 400 128.8 412.2C171.7 424.3 214.3 432.7 257.2 427.3C300 422 343 403 385.8 392C428.7 381 471.3 378 514.2 382.5C557 387 600 399 642.8 406.8C685.7 414.7 728.3 418.3 771.2 416.3C814 414.3 857 406.7 878.5 402.8L900 399L900 601L878.5 601C857 601 814 601 771.2 601C728.3 601 685.7 601 642.8 601C600 601 557 601 514.2 601C471.3 601 428.7 601 385.8 601C343 601 300 601 257.2 601C214.3 601 171.7 601 128.8 601C86 601 43 601 21.5 601L0 601Z"/><path fill="#502b42" d="M0 413L21.5 415.2C43 417.3 86 421.7 128.8 426.8C171.7 432 214.3 438 257.2 447.3C300 456.7 343 469.3 385.8 464.5C428.7 459.7 471.3 437.3 514.2 435.8C557 434.3 600 453.7 642.8 457.8C685.7 462 728.3 451 771.2 448.7C814 446.3 857 452.7 878.5 455.8L900 459L900 601L878.5 601C857 601 814 601 771.2 601C728.3 601 685.7 601 642.8 601C600 601 557 601 514.2 601C471.3 601 428.7 601 385.8 601C343 601 300 601 257.2 601C214.3 601 171.7 601 128.8 601C86 601 43 601 21.5 601L0 601Z"/><path fill="#3f1c30" d="M0 520L21.5 510.7C43 501.3 86 482.7 128.8 480.2C171.7 477.7 214.3 491.3 257.2 495.7C300 500 343 495 385.8 494.2C428.7 493.3 471.3 496.7 514.2 496.2C557 495.7 600 491.3 642.8 486.5C685.7 481.7 728.3 476.3 771.2 475.3C814 474.3 857 477.7 878.5 479.3L900 481L900 601L878.5 601C857 601 814 601 771.2 601C728.3 601 685.7 601 642.8 601C600 601 557 601 514.2 601C471.3 601 428.7 601 385.8 601C343 601 300 601 257.2 601C214.3 601 171.7 601 128.8 601C86 601 43 601 21.5 601L0 601Z"/><path fill="#2e0f1f" d="M0 536L21.5 538.2C43 540.3 86 544.7 128.8 544.7C171.7 544.7 214.3 540.3 257.2 535.2C300 530 343 524 385.8 521.8C428.7 519.7 471.3 521.3 514.2 523.3C557 525.3 600 527.7 642.8 527.7C685.7 527.7 728.3 525.3 771.2 528.7C814 532 857 541 878.5 545.5L900 550L900 601L878.5 601C857 601 814 601 771.2 601C728.3 601 685.7 601 642.8 601C600 601 557 601 514.2 601C471.3 601 428.7 601 385.8 601C343 601 300 601 257.2 601C214.3 601 171.7 601 128.8 601C86 601 43 601 21.5 601L0 601Z"/></svg>