<svg xmlns="http://www.w3.org/2000/svg" xmlns:xlink="http://www.w3.org/1999/xlink" width="2000" zoomAndPan="magnify" viewBox="0 0 1500 1499.999933" height="2000" preserveAspectRatio="xMidYMid meet" version="1.0"><defs><clipPath id="978ae447e9"><path d="M 0 139 L 1500 139 L 1500 1174 L 0 1174 Z M 0 139 " clip-rule="nonzero"/></clipPath><clipPath id="e8cabedc08"><path d="M -391.519531 948.523438 L 1380.105469 -213.566406 L 1746.214844 344.574219 L -25.410156 1506.664062 Z M -391.519531 948.523438 " clip-rule="nonzero"/></clipPath><clipPath id="8fcbb6b076"><path d="M -25.503906 1506.515625 L 1746.117188 344.429688 L 1380.007812 -213.710938 L -391.613281 948.378906 Z M -25.503906 1506.515625 " clip-rule="nonzero"/></clipPath><clipPath id="3c5d9d11a8"><path d="M 0 148 L 1500 148 L 1500 1190 L 0 1190 Z M 0 148 " clip-rule="nonzero"/></clipPath><clipPath id="cba069f027"><path d="M -391.519531 948.523438 L 1380.105469 -213.566406 L 1746.214844 344.574219 L -25.410156 1506.664062 Z M -391.519531 948.523438 " clip-rule="nonzero"/></clipPath><clipPath id="acc3e51a63"><path d="M -25.503906 1506.515625 L 1746.117188 344.429688 L 1380.007812 -213.710938 L -391.613281 948.378906 Z M -25.503906 1506.515625 " clip-rule="nonzero"/></clipPath><clipPath id="4e3e37f789"><path d="M 0 155 L 1500 155 L 1500 1206 L 0 1206 Z M 0 155 " clip-rule="nonzero"/></clipPath><clipPath id="0b4359cf37"><path d="M -391.519531 948.523438 L 1380.105469 -213.566406 L 1746.214844 344.574219 L -25.410156 1506.664062 Z M -391.519531 948.523438 " clip-rule="nonzero"/></clipPath><clipPath id="9155af6fbc"><path d="M -25.503906 1506.515625 L 1746.117188 344.429688 L 1380.007812 -213.710938 L -391.613281 948.378906 Z M -25.503906 1506.515625 " clip-rule="nonzero"/></clipPath><clipPath id="55ebd299af"><path d="M 0 159 L 1500 159 L 1500 1222 L 0 1222 Z M 0 159 " clip-rule="nonzero"/></clipPath><clipPath id="41b87735b0"><path d="M -391.519531 948.523438 L 1380.105469 -213.566406 L 1746.214844 344.574219 L -25.410156 1506.664062 Z M -391.519531 948.523438 " clip-rule="nonzero"/></clipPath><clipPath id="2ae59d5cca"><path d="M -25.503906 1506.515625 L 1746.117188 344.429688 L 1380.007812 -213.710938 L -391.613281 948.378906 Z M -25.503906 1506.515625 " clip-rule="nonzero"/></clipPath><clipPath id="c64862cdbb"><path d="M 0 161 L 1500 161 L 1500 1238 L 0 1238 Z M 0 161 " clip-rule="nonzero"/></clipPath><clipPath id="2f5c858c2a"><path d="M -391.519531 948.523438 L 1380.105469 -213.566406 L 1746.214844 344.574219 L -25.410156 1506.664062 Z M -391.519531 948.523438 " clip-rule="nonzero"/></clipPath><clipPath id="d91e8b6cae"><path d="M -25.503906 1506.515625 L 1746.117188 344.429688 L 1380.007812 -213.710938 L -391.613281 948.378906 Z M -25.503906 1506.515625 " clip-rule="nonzero"/></clipPath><clipPath id="c724ba146a"><path d="M 0 159 L 1500 159 L 1500 1253 L 0 1253 Z M 0 159 " clip-rule="nonzero"/></clipPath><clipPath id="f95f53eb2f"><path d="M -391.519531 948.523438 L 1380.105469 -213.566406 L 1746.214844 344.574219 L -25.410156 1506.664062 Z M -391.519531 948.523438 " clip-rule="nonzero"/></clipPath><clipPath id="db9cdc88b4"><path d="M -25.503906 1506.515625 L 1746.117188 344.429688 L 1380.007812 -213.710938 L -391.613281 948.378906 Z M -25.503906 1506.515625 " clip-rule="nonzero"/></clipPath><clipPath id="5f72962ee9"><path d="M 0 156 L 1500 156 L 1500 1269 L 0 1269 Z M 0 156 " clip-rule="nonzero"/></clipPath><clipPath id="0f8344e79c"><path d="M -391.519531 948.523438 L 1380.105469 -213.566406 L 1746.214844 344.574219 L -25.410156 1506.664062 Z M -391.519531 948.523438 " clip-rule="nonzero"/></clipPath><clipPath id="7158559186"><path d="M -25.503906 1506.515625 L 1746.117188 344.429688 L 1380.007812 -213.710938 L -391.613281 948.378906 Z M -25.503906 1506.515625 " clip-rule="nonzero"/></clipPath><clipPath id="79f4037e5f"><path d="M 0 145 L 1500 145 L 1500 1285 L 0 1285 Z M 0 145 " clip-rule="nonzero"/></clipPath><clipPath id="debb303e6e"><path d="M -391.519531 948.523438 L 1380.105469 -213.566406 L 1746.214844 344.574219 L -25.410156 1506.664062 Z M -391.519531 948.523438 " clip-rule="nonzero"/></clipPath><clipPath id="ef0b81849d"><path d="M -25.503906 1506.515625 L 1746.117188 344.429688 L 1380.007812 -213.710938 L -391.613281 948.378906 Z M -25.503906 1506.515625 " clip-rule="nonzero"/></clipPath><clipPath id="8e39dac60f"><path d="M 0 134 L 1500 134 L 1500 1301 L 0 1301 Z M 0 134 " clip-rule="nonzero"/></clipPath><clipPath id="3a848e8d97"><path d="M -391.519531 948.523438 L 1380.105469 -213.566406 L 1746.214844 344.574219 L -25.410156 1506.664062 Z M -391.519531 948.523438 " clip-rule="nonzero"/></clipPath><clipPath id="950a4c421b"><path d="M -25.503906 1506.515625 L 1746.117188 344.429688 L 1380.007812 -213.710938 L -391.613281 948.378906 Z M -25.503906 1506.515625 " clip-rule="nonzero"/></clipPath><clipPath id="b4c019256b"><path d="M 0 122 L 1500 122 L 1500 1317 L 0 1317 Z M 0 122 " clip-rule="nonzero"/></clipPath><clipPath id="be8c63d6c0"><path d="M -391.519531 948.523438 L 1380.105469 -213.566406 L 1746.214844 344.574219 L -25.410156 1506.664062 Z M -391.519531 948.523438 " clip-rule="nonzero"/></clipPath><clipPath id="3fdd49335e"><path d="M -25.503906 1506.515625 L 1746.117188 344.429688 L 1380.007812 -213.710938 L -391.613281 948.378906 Z M -25.503906 1506.515625 " clip-rule="nonzero"/></clipPath><clipPath id="85df0ae247"><path d="M 0 111 L 1500 111 L 1500 1332 L 0 1332 Z M 0 111 " clip-rule="nonzero"/></clipPath><clipPath id="ae26a45242"><path d="M -391.519531 948.523438 L 1380.105469 -213.566406 L 1746.214844 344.574219 L -25.410156 1506.664062 Z M -391.519531 948.523438 " clip-rule="nonzero"/></clipPath><clipPath id="95c700ef93"><path d="M -25.503906 1506.515625 L 1746.117188 344.429688 L 1380.007812 -213.710938 L -391.613281 948.378906 Z M -25.503906 1506.515625 " clip-rule="nonzero"/></clipPath><clipPath id="864ed7b913"><path d="M 0 100 L 1500 100 L 1500 1348 L 0 1348 Z M 0 100 " clip-rule="nonzero"/></clipPath><clipPath id="dd8f087ea7"><path d="M -391.519531 948.523438 L 1380.105469 -213.566406 L 1746.214844 344.574219 L -25.410156 1506.664062 Z M -391.519531 948.523438 " clip-rule="nonzero"/></clipPath><clipPath id="abefe9afc3"><path d="M -25.503906 1506.515625 L 1746.117188 344.429688 L 1380.007812 -213.710938 L -391.613281 948.378906 Z M -25.503906 1506.515625 " clip-rule="nonzero"/></clipPath><clipPath id="dc8fa8eed8"><path d="M 0 89 L 1500 89 L 1500 1364 L 0 1364 Z M 0 89 " clip-rule="nonzero"/></clipPath><clipPath id="82abe143f6"><path d="M -391.519531 948.523438 L 1380.105469 -213.566406 L 1746.214844 344.574219 L -25.410156 1506.664062 Z M -391.519531 948.523438 " clip-rule="nonzero"/></clipPath><clipPath id="2389964ef9"><path d="M -25.503906 1506.515625 L 1746.117188 344.429688 L 1380.007812 -213.710938 L -391.613281 948.378906 Z M -25.503906 1506.515625 " clip-rule="nonzero"/></clipPath><clipPath id="53ead7d78a"><path d="M 0 77 L 1500 77 L 1500 1380 L 0 1380 Z M 0 77 " clip-rule="nonzero"/></clipPath><clipPath id="ab650fa7c0"><path d="M -391.519531 948.523438 L 1380.105469 -213.566406 L 1746.214844 344.574219 L -25.410156 1506.664062 Z M -391.519531 948.523438 " clip-rule="nonzero"/></clipPath><clipPath id="ccea1dda4b"><path d="M -25.503906 1506.515625 L 1746.117188 344.429688 L 1380.007812 -213.710938 L -391.613281 948.378906 Z M -25.503906 1506.515625 " clip-rule="nonzero"/></clipPath><clipPath id="42954c95c3"><path d="M 0 66 L 1500 66 L 1500 1396 L 0 1396 Z M 0 66 " clip-rule="nonzero"/></clipPath><clipPath id="f498213159"><path d="M -391.519531 948.523438 L 1380.105469 -213.566406 L 1746.214844 344.574219 L -25.410156 1506.664062 Z M -391.519531 948.523438 " clip-rule="nonzero"/></clipPath><clipPath id="cb70f45576"><path d="M -25.503906 1506.515625 L 1746.117188 344.429688 L 1380.007812 -213.710938 L -391.613281 948.378906 Z M -25.503906 1506.515625 " clip-rule="nonzero"/></clipPath><clipPath id="9f73cb8757"><path d="M 0 55 L 1500 55 L 1500 1412 L 0 1412 Z M 0 55 " clip-rule="nonzero"/></clipPath><clipPath id="03158e0a64"><path d="M -391.519531 948.523438 L 1380.105469 -213.566406 L 1746.214844 344.574219 L -25.410156 1506.664062 Z M -391.519531 948.523438 " clip-rule="nonzero"/></clipPath><clipPath id="5ce9df38e4"><path d="M -25.503906 1506.515625 L 1746.117188 344.429688 L 1380.007812 -213.710938 L -391.613281 948.378906 Z M -25.503906 1506.515625 " clip-rule="nonzero"/></clipPath><clipPath id="b5cfed9786"><path d="M 0 44 L 1500 44 L 1500 1427 L 0 1427 Z M 0 44 " clip-rule="nonzero"/></clipPath><clipPath id="9aa26cbfde"><path d="M -391.519531 948.523438 L 1380.105469 -213.566406 L 1746.214844 344.574219 L -25.410156 1506.664062 Z M -391.519531 948.523438 " clip-rule="nonzero"/></clipPath><clipPath id="e29b2c13ff"><path d="M -25.503906 1506.515625 L 1746.117188 344.429688 L 1380.007812 -213.710938 L -391.613281 948.378906 Z M -25.503906 1506.515625 " clip-rule="nonzero"/></clipPath><clipPath id="1e3f7d5d50"><path d="M 0 32 L 1500 32 L 1500 1443 L 0 1443 Z M 0 32 " clip-rule="nonzero"/></clipPath><clipPath id="bc7110153c"><path d="M -391.519531 948.523438 L 1380.105469 -213.566406 L 1746.214844 344.574219 L -25.410156 1506.664062 Z M -391.519531 948.523438 " clip-rule="nonzero"/></clipPath><clipPath id="41eefaa526"><path d="M -25.503906 1506.515625 L 1746.117188 344.429688 L 1380.007812 -213.710938 L -391.613281 948.378906 Z M -25.503906 1506.515625 " clip-rule="nonzero"/></clipPath><clipPath id="4ee413d388"><path d="M 0 21 L 1500 21 L 1500 1459 L 0 1459 Z M 0 21 " clip-rule="nonzero"/></clipPath><clipPath id="add299945f"><path d="M -391.519531 948.523438 L 1380.105469 -213.566406 L 1746.214844 344.574219 L -25.410156 1506.664062 Z M -391.519531 948.523438 " clip-rule="nonzero"/></clipPath><clipPath id="54d843e1e6"><path d="M -25.503906 1506.515625 L 1746.117188 344.429688 L 1380.007812 -213.710938 L -391.613281 948.378906 Z M -25.503906 1506.515625 " clip-rule="nonzero"/></clipPath><clipPath id="35f441f875"><path d="M 0 10 L 1500 10 L 1500 1475 L 0 1475 Z M 0 10 " clip-rule="nonzero"/></clipPath><clipPath id="e3640630bb"><path d="M -391.519531 948.523438 L 1380.105469 -213.566406 L 1746.214844 344.574219 L -25.410156 1506.664062 Z M -391.519531 948.523438 " clip-rule="nonzero"/></clipPath><clipPath id="ce45a57dba"><path d="M -25.503906 1506.515625 L 1746.117188 344.429688 L 1380.007812 -213.710938 L -391.613281 948.378906 Z M -25.503906 1506.515625 " clip-rule="nonzero"/></clipPath><clipPath id="480a768e89"><path d="M 0 0 L 1500 0 L 1500 1491 L 0 1491 Z M 0 0 " clip-rule="nonzero"/></clipPath><clipPath id="f608c3bd4e"><path d="M -391.519531 948.523438 L 1380.105469 -213.566406 L 1746.214844 344.574219 L -25.410156 1506.664062 Z M -391.519531 948.523438 " clip-rule="nonzero"/></clipPath><clipPath id="30fa1d2b4f"><path d="M -25.503906 1506.515625 L 1746.117188 344.429688 L 1380.007812 -213.710938 L -391.613281 948.378906 Z M -25.503906 1506.515625 " clip-rule="nonzero"/></clipPath><clipPath id="46c000597f"><path d="M -391.519531 948.523438 L 1380.105469 -213.566406 L 1746.214844 344.574219 L -25.410156 1506.664062 Z M -391.519531 948.523438 " clip-rule="nonzero"/></clipPath><clipPath id="50fc802738"><path d="M -25.503906 1506.515625 L 1746.117188 344.429688 L 1380.007812 -213.710938 L -391.613281 948.378906 Z M -25.503906 1506.515625 " clip-rule="nonzero"/></clipPath></defs><g clip-path="url(#978ae447e9)"><g clip-path="url(#e8cabedc08)"><g clip-path="url(#8fcbb6b076)"><path fill="#b48fc6" d="M 408.382812 459.027344 C 388.1875 472.273438 370.859375 489.21875 356.78125 509.519531 C 329.804688 548.410156 305.320312 594.714844 281.933594 651.078125 C 261.289062 700.832031 244.082031 751.890625 227.4375 801.265625 C 207.085938 861.652344 187.863281 918.6875 164.566406 966.847656 C 138.453125 1020.828125 110.863281 1056.089844 77.734375 1077.820312 C 8.128906 1123.476562 -75.5625 1147 -133.519531 1158.699219 C -196.328125 1171.367188 -243.269531 1173.265625 -243.734375 1173.28125 L -243.714844 1173.8125 C -243.246094 1173.796875 -196.273438 1171.894531 -133.433594 1159.21875 C -96.527344 1151.773438 -61.441406 1142.113281 -29.164062 1130.519531 C 11.1875 1116.023438 47.246094 1098.445312 78.015625 1078.261719 C 111.230469 1056.476562 138.875 1021.148438 165.042969 967.074219 C 188.355469 918.882812 207.582031 861.835938 227.941406 801.433594 C 261.859375 700.789062 296.933594 596.71875 357.210938 509.816406 C 423.089844 414.832031 551.246094 407.617188 632.210938 455.402344 C 665.480469 475.039062 690.183594 503.652344 711.984375 528.894531 C 743.679688 565.597656 771.042969 597.292969 813.625 590.734375 C 853.609375 584.574219 886.398438 570.734375 913.863281 548.425781 C 938.070312 528.761719 955.109375 505.300781 971.582031 482.617188 C 1007.285156 433.449219 1038.121094 390.988281 1128.070312 400.015625 C 1173.042969 404.523438 1203.800781 397.976562 1222.105469 379.996094 C 1248.320312 354.25 1244.636719 309.390625 1241.074219 266.011719 C 1237.554688 223.210938 1234.238281 182.785156 1260.042969 164.796875 C 1286.234375 146.53125 1323.914062 138.332031 1372.027344 140.402344 C 1410.550781 142.058594 1455.800781 150.269531 1506.527344 164.808594 C 1592.914062 189.5625 1666.191406 224.566406 1666.921875 224.917969 L 1667.152344 224.4375 C 1666.421875 224.089844 1593.109375 189.070312 1506.679688 164.296875 C 1455.90625 149.746094 1410.613281 141.53125 1372.050781 139.867188 C 1323.8125 137.789062 1286.023438 146.035156 1259.730469 164.351562 C 1233.679688 182.511719 1237.007812 223.089844 1240.539062 266.046875 C 1244.089844 309.308594 1247.765625 354.039062 1221.726562 379.613281 C 1203.539062 397.476562 1172.914062 403.972656 1128.113281 399.480469 C 1086.894531 395.347656 1055.363281 401.683594 1028.90625 419.425781 C 1005.324219 435.238281 988.722656 458.097656 971.148438 482.300781 C 939.101562 526.4375 902.769531 576.460938 813.539062 590.207031 C 771.253906 596.722656 743.976562 565.128906 712.382812 528.546875 C 690.558594 503.265625 665.820312 474.621094 632.476562 454.941406 C 613.152344 443.535156 590.230469 435.066406 566.207031 430.445312 C 541.507812 425.699219 515.476562 425.023438 490.933594 428.484375 C 464.320312 432.246094 439.613281 440.625 417.5 453.394531 C 414.402344 455.199219 411.355469 457.074219 408.382812 459.027344 Z M 408.382812 459.027344 " fill-opacity="1" fill-rule="nonzero"/></g></g></g><g clip-path="url(#3c5d9d11a8)"><g clip-path="url(#cba069f027)"><g clip-path="url(#acc3e51a63)"><path fill="#b48fc6" d="M 406.230469 471.804688 C 387.199219 484.289062 370.363281 499.734375 356.269531 517.761719 C 330.394531 550.878906 307.984375 588.191406 287.765625 631.847656 C 270.535156 669.046875 254.714844 711.402344 239.40625 761.347656 C 237.707031 766.890625 236.015625 772.417969 234.332031 777.925781 C 214.078125 844.164062 194.949219 906.730469 171.222656 960.050781 C 144.566406 1019.960938 116.078125 1059.203125 81.566406 1083.546875 C -38.066406 1168.636719 -200.910156 1186.328125 -232.335938 1189.007812 C -233.515625 1189.109375 -233.511719 1189.109375 -233.582031 1189.25 L -233.34375 1189.363281 L -233.289062 1189.621094 C -233.234375 1189.609375 -232.835938 1189.578125 -232.292969 1189.53125 C -200.839844 1186.847656 -37.882812 1169.140625 81.871094 1083.972656 C 100.136719 1071.089844 116.566406 1054.121094 132.101562 1032.101562 C 146.03125 1012.351562 158.984375 988.855469 171.707031 960.265625 C 195.445312 906.917969 214.578125 844.339844 234.832031 778.082031 C 236.519531 772.574219 238.210938 767.046875 239.90625 761.507812 C 272.691406 654.5625 308.710938 579.488281 356.6875 518.089844 C 419.324219 437.929688 517.433594 426.878906 582.421875 441.765625 C 599.230469 445.617188 615.015625 451.378906 629.347656 458.886719 C 662.03125 475.996094 686.527344 501.757812 708.148438 524.484375 C 739.707031 557.664062 766.957031 586.324219 809.210938 580.316406 C 816.511719 579.28125 823.445312 578.078125 829.820312 576.746094 C 863.027344 569.816406 890.738281 557.230469 914.542969 538.265625 C 935.503906 521.566406 950.730469 502.316406 965.460938 483.703125 C 999.59375 440.554688 1029.070312 403.289062 1115.601562 413.945312 C 1120.160156 414.503906 1124.617188 415.035156 1128.976562 415.324219 C 1166.140625 417.796875 1192.117188 411.21875 1208.378906 395.21875 C 1233.433594 370.578125 1231.265625 327.226562 1229.175781 285.304688 C 1227.011719 241.980469 1224.96875 201.058594 1251.285156 181.007812 C 1283.304688 156.617188 1331.84375 146.0625 1395.558594 149.636719 C 1442.625 152.28125 1497.855469 162.59375 1559.714844 180.292969 C 1619.839844 197.5 1659.152344 213.484375 1659.546875 213.644531 L 1659.742188 213.15625 C 1659.351562 212.992188 1620.019531 196.996094 1559.863281 179.78125 C 1497.964844 162.070312 1442.695312 151.753906 1395.59375 149.109375 C 1336.144531 145.777344 1289.855469 154.734375 1257.832031 175.738281 C 1255.46875 177.289062 1253.179688 178.90625 1250.96875 180.585938 C 1239.039062 189.671875 1231.871094 204.050781 1229.050781 224.554688 C 1226.53125 242.847656 1227.558594 263.484375 1228.652344 285.332031 C 1230.738281 327.140625 1232.898438 370.363281 1208.019531 394.839844 C 1191.867188 410.726562 1166.023438 417.257812 1129.015625 414.796875 C 1124.671875 414.503906 1120.222656 413.984375 1115.667969 413.417969 C 1075.988281 408.535156 1045.730469 413.292969 1020.453125 428.394531 C 997.863281 441.882812 981.929688 462.039062 965.050781 483.375 C 936.359375 519.644531 903.839844 560.75 829.71875 576.230469 C 823.359375 577.558594 816.4375 578.753906 809.148438 579.796875 C 767.171875 585.757812 740 557.199219 708.546875 524.121094 C 686.90625 501.363281 662.375 475.570312 629.605469 458.421875 C 615.234375 450.886719 599.398438 445.113281 582.550781 441.25 C 543.957031 432.410156 501.578125 433.878906 463.207031 445.386719 C 442.695312 451.535156 423.554688 460.441406 406.230469 471.804688 Z M 406.230469 471.804688 " fill-opacity="1" fill-rule="nonzero"/></g></g></g><g clip-path="url(#4e3e37f789)"><g clip-path="url(#0b4359cf37)"><g clip-path="url(#9155af6fbc)"><path fill="#b48fc6" d="M 403.046875 485.121094 C 385.476562 496.644531 369.566406 510.371094 355.769531 526.003906 C 327.71875 557.792969 304.40625 593.050781 284.5 633.792969 C 266.097656 671.460938 250.535156 714.046875 236.941406 763.984375 C 218.023438 833.457031 199.097656 900.488281 175.628906 956.820312 C 149.492188 1019.554688 119.972656 1062.882812 85.394531 1089.277344 C -26.644531 1174.824219 -177.519531 1199.222656 -221.089844 1204.667969 C -223.132812 1204.929688 -223.128906 1204.925781 -223.203125 1205.074219 L -222.96875 1205.191406 L -222.886719 1205.441406 C -222.789062 1205.417969 -222.046875 1205.324219 -221.027344 1205.199219 C -177.425781 1199.75 -26.441406 1175.328125 85.710938 1089.703125 C 104.183594 1075.597656 120.765625 1057.277344 136.402344 1033.679688 C 150.488281 1012.421875 163.480469 987.347656 176.117188 957.023438 C 199.601562 900.664062 218.527344 833.617188 237.449219 764.125 C 265.1875 662.265625 302.910156 586.714844 356.167969 526.359375 C 410.75 464.507812 498.847656 433.867188 580.609375 448.292969 C 596.8125 451.152344 612.25 455.890625 626.488281 462.371094 C 658.660156 476.980469 682.992188 499.929688 704.460938 520.175781 C 735.839844 549.777344 762.9375 575.339844 804.792969 569.894531 C 812.546875 568.886719 819.273438 567.863281 825.355469 566.769531 C 899.324219 553.441406 931.144531 517.089844 959.21875 485.015625 C 991.796875 447.792969 1019.933594 415.652344 1103.117188 427.871094 L 1105.050781 428.160156 C 1108.960938 428.742188 1112.65625 429.289062 1116.339844 429.589844 C 1152.203125 432.5 1177.492188 426.535156 1193.667969 411.359375 C 1218.644531 387.925781 1217.90625 345.457031 1217.195312 304.386719 C 1216.832031 283.433594 1216.457031 261.773438 1219.539062 243.0625 C 1222.988281 222.132812 1230.503906 207.132812 1242.515625 197.214844 C 1274.597656 170.726562 1322.746094 156.832031 1385.636719 155.917969 C 1433.039062 155.230469 1488.492188 161.855469 1550.449219 175.628906 C 1614.371094 189.835938 1651.773438 202.242188 1652.144531 202.363281 L 1652.3125 201.859375 C 1651.941406 201.738281 1614.515625 189.320312 1550.566406 175.109375 C 1488.566406 161.332031 1433.074219 154.695312 1385.628906 155.382812 C 1322.617188 156.300781 1274.359375 170.238281 1242.183594 196.800781 C 1230.066406 206.808594 1222.488281 221.910156 1219.019531 242.976562 C 1215.929688 261.734375 1216.304688 283.417969 1216.671875 304.386719 C 1217.382812 345.34375 1218.113281 387.695312 1193.308594 410.96875 C 1177.257812 426.039062 1152.089844 431.953125 1116.386719 429.054688 C 1112.71875 428.753906 1109.035156 428.207031 1105.132812 427.625 L 1103.195312 427.335938 C 1019.726562 415.074219 991.503906 447.316406 958.824219 484.65625 C 930.808594 516.664062 899.046875 552.945312 825.265625 566.234375 C 819.191406 567.332031 812.472656 568.347656 804.730469 569.355469 C 763.121094 574.761719 736.113281 549.28125 704.832031 519.773438 C 683.335938 499.496094 658.96875 476.511719 626.710938 461.871094 C 612.433594 455.375 596.953125 450.621094 580.703125 447.753906 C 543.324219 441.15625 501.730469 444.210938 463.59375 456.355469 C 441.9375 463.273438 421.570312 472.972656 403.046875 485.121094 Z M 403.046875 485.121094 " fill-opacity="1" fill-rule="nonzero"/></g></g></g><g clip-path="url(#55ebd299af)"><g clip-path="url(#41b87735b0)"><g clip-path="url(#2ae59d5cca)"><path fill="#b48fc6" d="M 398.441406 499.21875 C 382.796875 509.480469 368.296875 521.226562 355.269531 534.25 C 296.125 593.402344 258.871094 665.0625 234.480469 766.613281 C 202.820312 898.402344 165.535156 1032.3125 89.234375 1095.015625 C -18.710938 1183.714844 -167.0625 1213.320312 -209.957031 1220.285156 C -212.742188 1220.742188 -212.742188 1220.742188 -212.824219 1220.898438 L -212.589844 1221.011719 L -212.484375 1221.253906 C -212.347656 1221.207031 -211.3125 1221.042969 -209.882812 1220.808594 C -162.753906 1213.160156 -121.601562 1201.257812 -95.375 1192.625 C -21.589844 1168.328125 40.636719 1135.625 89.5625 1095.417969 C 123.578125 1067.464844 152.355469 1023.351562 177.527344 960.558594 C 201.507812 900.738281 220.03125 829.015625 234.988281 766.734375 C 259.359375 665.285156 296.566406 593.699219 355.640625 534.621094 C 413.554688 476.703125 501.148438 445.378906 578.789062 454.8125 C 594.390625 456.707031 609.472656 460.421875 623.625 465.84375 C 655.378906 477.960938 678.558594 497.28125 700.976562 515.972656 C 732.113281 541.929688 759.007812 564.34375 800.371094 559.476562 C 806.59375 558.746094 813.894531 557.855469 820.894531 556.796875 C 894.382812 545.675781 925.429688 514.277344 952.824219 486.574219 C 983.875 455.175781 1010.691406 428.0625 1090.636719 441.808594 C 1091.640625 441.976562 1092.640625 442.160156 1093.632812 442.339844 C 1097.109375 442.957031 1100.394531 443.542969 1103.714844 443.867188 C 1138.289062 447.191406 1162.910156 441.820312 1178.976562 427.453125 C 1190.164062 417.445312 1197.429688 402.71875 1201.183594 382.429688 C 1204.53125 364.332031 1204.859375 343.453125 1205.179688 323.257812 C 1205.84375 281.160156 1206.527344 237.640625 1233.75 213.433594 C 1265.972656 184.78125 1313.761719 167.519531 1375.789062 162.132812 C 1424.101562 157.9375 1479.746094 160.910156 1541.1875 170.96875 C 1609.019531 182.070312 1644.40625 191 1644.753906 191.085938 L 1644.886719 190.570312 C 1644.535156 190.484375 1609.128906 181.554688 1541.273438 170.445312 C 1479.796875 160.378906 1424.101562 157.398438 1375.742188 161.597656 C 1313.601562 166.992188 1265.710938 184.292969 1233.398438 213.03125 C 1206.003906 237.390625 1205.316406 281.035156 1204.648438 323.242188 C 1203.988281 365.253906 1203.355469 404.929688 1178.617188 427.054688 C 1162.667969 441.316406 1138.183594 446.640625 1103.765625 443.335938 C 1100.464844 443.015625 1097.191406 442.433594 1093.726562 441.816406 C 1092.734375 441.636719 1091.734375 441.460938 1090.726562 441.289062 C 1039.855469 432.542969 1010.417969 440.285156 987.75 455.15625 C 974.667969 463.734375 963.847656 474.675781 952.449219 486.207031 C 925.113281 513.847656 894.125 545.179688 820.8125 556.277344 C 813.824219 557.335938 806.527344 558.226562 800.3125 558.960938 C 759.167969 563.800781 732.359375 541.453125 701.3125 515.578125 C 678.863281 496.867188 655.648438 477.511719 623.8125 465.367188 C 609.617188 459.929688 594.492188 456.203125 578.851562 454.304688 C 542.226562 449.855469 502.492188 454.375 463.933594 467.386719 C 440.699219 475.21875 418.621094 485.980469 398.441406 499.21875 Z M 398.441406 499.21875 " fill-opacity="1" fill-rule="nonzero"/></g></g></g><g clip-path="url(#c64862cdbb)"><g clip-path="url(#2f5c858c2a)"><g clip-path="url(#d91e8b6cae)"><path fill="#b48fc6" d="M 391.453125 514.621094 C 378.503906 523.113281 366.210938 532.441406 354.773438 542.492188 C 322.386719 570.941406 297.210938 602.058594 277.804688 637.613281 C 257.960938 673.960938 242.988281 717.015625 232.019531 769.246094 C 205.394531 895.992188 168.070312 1034.492188 93.066406 1100.75 C -8.28125 1190.28125 -144.910156 1225.070312 -198.945312 1235.867188 C -202.359375 1236.550781 -202.359375 1236.550781 -202.445312 1236.726562 L -202.210938 1236.84375 L -202.082031 1237.070312 C -201.921875 1237.003906 -200.628906 1236.746094 -198.839844 1236.386719 C -160.863281 1228.796875 -122.785156 1217.957031 -85.667969 1204.164062 C -14.132812 1177.589844 46.117188 1142.925781 93.414062 1101.148438 C 126.769531 1071.683594 154.722656 1026.84375 178.878906 964.074219 C 198.050781 914.234375 215.101562 852.359375 232.539062 769.359375 C 253.976562 667.277344 290.640625 599.550781 355.125 542.902344 C 417.785156 487.847656 502.804688 456.601562 576.992188 461.347656 C 591.96875 462.3125 606.703125 464.996094 620.785156 469.34375 C 652.246094 478.96875 675.40625 495.699219 697.796875 511.875 C 712.925781 522.808594 727.222656 533.132812 742.894531 540.246094 C 760.492188 548.226562 777.355469 551.035156 795.976562 549.074219 L 799.476562 548.710938 C 805.375 548.097656 810.945312 547.511719 816.445312 546.839844 C 889.25 537.929688 919.523438 511.613281 946.234375 488.390625 C 976.996094 461.652344 1001.292969 440.527344 1078.171875 455.757812 C 1079.324219 455.984375 1080.46875 456.226562 1081.605469 456.464844 C 1084.867188 457.148438 1087.953125 457.796875 1091.109375 458.148438 C 1124.40625 461.859375 1148.351562 457.066406 1164.304688 443.484375 C 1189.179688 422.308594 1191.113281 383.242188 1193.164062 341.878906 C 1195.253906 299.621094 1197.417969 255.929688 1225.007812 229.65625 C 1307.503906 151.109375 1467.140625 159.199219 1531.949219 166.328125 C 1603.777344 174.226562 1637.058594 179.769531 1637.386719 179.828125 L 1637.476562 179.308594 C 1637.148438 179.25 1603.851562 173.703125 1532.003906 165.804688 C 1490.335938 161.222656 1427.707031 157.847656 1365.9375 167.765625 C 1319.414062 175.234375 1280.78125 188.988281 1250.636719 208.761719 C 1241.121094 215.003906 1232.453125 221.839844 1224.644531 229.273438 C 1196.894531 255.695312 1194.730469 299.496094 1192.632812 341.851562 C 1190.59375 383.097656 1188.664062 422.058594 1163.964844 443.082031 C 1148.125 456.558594 1124.3125 461.316406 1091.167969 457.621094 C 1088.039062 457.273438 1084.96875 456.628906 1081.714844 455.945312 C 1080.578125 455.707031 1079.429688 455.464844 1078.277344 455.234375 C 1042.90625 448.226562 1016.300781 448.46875 994.542969 455.992188 C 974.863281 462.796875 960.789062 475.035156 945.886719 487.992188 C 919.238281 511.160156 889.027344 537.417969 816.382812 546.308594 C 810.886719 546.984375 805.320312 547.5625 799.421875 548.183594 L 795.921875 548.546875 C 755.371094 552.816406 728.835938 533.648438 698.105469 511.453125 C 675.679688 495.25 652.488281 478.496094 620.9375 468.84375 C 606.816406 464.492188 592.039062 461.796875 577.023438 460.828125 C 541.789062 458.570312 502.796875 464.644531 464.265625 478.390625 C 438.695312 487.496094 414.070312 499.785156 391.453125 514.621094 Z M 391.453125 514.621094 " fill-opacity="1" fill-rule="nonzero"/></g></g></g><g clip-path="url(#c724ba146a)"><g clip-path="url(#f95f53eb2f)"><g clip-path="url(#db9cdc88b4)"><path fill="#b48fc6" d="M 379.847656 532.59375 C 371.105469 538.328125 362.558594 544.382812 354.277344 550.742188 C 319.210938 577.640625 293.820312 605.84375 274.367188 639.496094 C 253.707031 675.226562 239.472656 717.292969 229.558594 771.875 C 198.3125 943.933594 156.160156 1050.257812 96.898438 1106.480469 C -1.027344 1199.386719 -134.972656 1238.789062 -188.019531 1251.417969 C -191.972656 1252.359375 -191.976562 1252.359375 -192.066406 1252.546875 L -191.828125 1252.664062 L -191.683594 1252.878906 C -191.503906 1252.785156 -189.992188 1252.425781 -187.898438 1251.925781 C -150.003906 1242.902344 -112.46875 1230.726562 -76.320312 1215.71875 C -6.890625 1186.894531 51.511719 1150.265625 97.265625 1106.863281 C 129.925781 1075.875 157.039062 1030.308594 180.15625 967.554688 C 199.277344 915.640625 215.609375 851.660156 230.082031 771.96875 C 248.855469 668.578125 284.925781 604.609375 354.601562 551.160156 C 421.921875 499.515625 506.441406 467.601562 575.183594 467.867188 C 589.523438 467.921875 603.910156 469.589844 617.933594 472.816406 C 649.292969 479.9375 672.535156 494.117188 695.019531 507.828125 C 724.125 525.582031 751.617188 542.347656 791.570312 538.640625 C 795.054688 538.316406 798.523438 538.023438 801.878906 537.734375 C 805.375 537.4375 808.675781 537.15625 811.996094 536.84375 C 843.96875 533.855469 870.480469 527.667969 893.046875 517.921875 C 912.730469 509.417969 926.839844 499.320312 939.292969 490.410156 C 968.53125 469.484375 991.621094 452.957031 1065.710938 469.671875 C 1066.921875 469.945312 1068.128906 470.238281 1069.324219 470.53125 C 1072.464844 471.289062 1075.425781 472.011719 1078.492188 472.398438 C 1110.535156 476.480469 1133.808594 472.234375 1149.640625 459.421875 C 1174.515625 439.292969 1177.734375 400.875 1181.144531 360.191406 C 1184.6875 317.894531 1188.359375 274.152344 1216.253906 245.847656 C 1276.0625 185.171875 1390.621094 153.695312 1522.703125 161.644531 C 1598.589844 166.210938 1629.714844 168.503906 1630.019531 168.527344 L 1630.058594 168 C 1629.753906 167.976562 1598.621094 165.679688 1522.734375 161.117188 C 1481.765625 158.648438 1419.609375 158.851562 1356.171875 173.816406 C 1315.03125 183.519531 1279.964844 197.851562 1251.390625 216.585938 C 1238.144531 225.277344 1226.300781 234.90625 1215.886719 245.476562 C 1187.847656 273.917969 1184.175781 317.757812 1180.621094 360.148438 C 1177.222656 400.710938 1174.011719 439.03125 1149.316406 459.007812 C 1133.601562 471.734375 1110.457031 475.9375 1078.566406 471.871094 C 1075.53125 471.488281 1072.578125 470.769531 1069.453125 470.007812 C 1068.253906 469.71875 1067.042969 469.425781 1065.828125 469.148438 C 991.511719 452.386719 968.332031 468.972656 938.988281 489.972656 C 913.019531 508.554688 883.585938 529.625 811.953125 536.308594 C 808.628906 536.621094 805.332031 536.902344 801.839844 537.199219 C 798.480469 537.488281 795.015625 537.78125 791.523438 538.109375 C 751.753906 541.796875 724.328125 525.074219 695.300781 507.371094 C 672.785156 493.636719 649.5 479.4375 618.058594 472.296875 C 604 469.058594 589.574219 467.390625 575.195312 467.335938 C 514.792969 467.105469 442.25 491.660156 379.847656 532.59375 Z M 379.847656 532.59375 " fill-opacity="1" fill-rule="nonzero"/></g></g></g><g clip-path="url(#5f72962ee9)"><g clip-path="url(#0f8344e79c)"><g clip-path="url(#7158559186)"><path fill="#b48fc6" d="M 375.945312 543.371094 C 368.292969 548.390625 360.890625 553.601562 353.765625 558.992188 C 315.25 588.121094 290.789062 613.214844 271.96875 642.90625 C 249.84375 677.808594 235.585938 719.625 227.101562 774.5 C 201.289062 941.457031 159.957031 1051.921875 100.738281 1112.207031 C 9.476562 1205.117188 -112.5625 1249.03125 -177.183594 1266.9375 C -181.582031 1268.15625 -181.597656 1268.175781 -181.6875 1268.367188 L -181.210938 1268.597656 L -181.453125 1268.484375 L -181.289062 1268.6875 C -181.089844 1268.570312 -179.390625 1268.101562 -177.046875 1267.449219 C -163.007812 1263.5625 -120.308594 1251.726562 -67.253906 1227.304688 C 0.191406 1196.253906 56.839844 1157.652344 101.109375 1112.582031 C 132.617188 1080.507812 159.613281 1032.882812 181.371094 971.03125 C 200.429688 916.847656 215.554688 852.589844 227.617188 774.582031 C 245.121094 661.382812 287.238281 609.96875 354.078125 559.417969 C 417.832031 511.203125 501.859375 478.621094 573.363281 474.394531 C 587.050781 473.585938 601.082031 474.222656 615.070312 476.292969 C 646.59375 480.855469 670.109375 492.527344 692.84375 503.816406 C 721.351562 517.964844 748.28125 531.332031 787.140625 528.222656 C 792.25 527.816406 797.308594 527.5 802.199219 527.195312 C 803.984375 527.089844 805.761719 526.976562 807.523438 526.863281 C 877.652344 522.371094 907.628906 505.894531 931.710938 492.65625 C 960.574219 476.792969 981.433594 465.328125 1053.21875 483.601562 C 1054.460938 483.914062 1055.703125 484.257812 1056.90625 484.597656 C 1059.824219 485.40625 1062.839844 486.238281 1065.855469 486.675781 C 1096.65625 491.101562 1119.265625 487.382812 1134.972656 475.320312 C 1159.875 456.191406 1164.375 418.328125 1169.136719 378.230469 C 1174.15625 336.003906 1179.34375 292.34375 1207.476562 262.066406 C 1281.429688 182.476562 1414.011719 155.601562 1513.429688 156.988281 C 1593.410156 158.101562 1622.347656 157.257812 1622.628906 157.25 L 1622.613281 156.722656 C 1622.328125 156.730469 1593.398438 157.574219 1513.4375 156.457031 C 1455.660156 155.652344 1397.898438 163.734375 1346.390625 179.832031 C 1318.28125 188.617188 1292.492188 199.703125 1269.746094 212.773438 C 1245.253906 226.847656 1224.179688 243.308594 1207.089844 261.699219 C 1178.835938 292.105469 1173.640625 335.855469 1168.613281 378.164062 C 1163.863281 418.144531 1159.375 455.90625 1134.648438 474.890625 C 1119.054688 486.863281 1096.582031 490.546875 1065.933594 486.144531 C 1062.953125 485.714844 1060.082031 484.917969 1057.050781 484.078125 C 1055.839844 483.742188 1054.597656 483.402344 1053.351562 483.085938 C 981.359375 464.761719 960.429688 476.269531 931.453125 492.191406 C 907.417969 505.398438 877.5 521.84375 807.492188 526.335938 C 805.730469 526.445312 803.953125 526.558594 802.167969 526.667969 C 797.277344 526.96875 792.214844 527.28125 787.101562 527.691406 C 748.386719 530.785156 721.523438 517.453125 693.082031 503.335938 C 670.308594 492.03125 646.757812 480.339844 615.152344 475.765625 C 601.128906 473.6875 587.058594 473.046875 573.335938 473.859375 C 539.394531 475.871094 501.472656 484.5 463.664062 498.804688 C 432.742188 510.511719 402.855469 525.722656 375.945312 543.371094 Z M 375.945312 543.371094 " fill-opacity="1" fill-rule="nonzero"/></g></g></g><g clip-path="url(#79f4037e5f)"><g clip-path="url(#debb303e6e)"><g clip-path="url(#ef0b81849d)"><path fill="#b48fc6" d="M 332.9375 579.644531 C 303.816406 598.746094 283.121094 618.875 267.285156 643.183594 C 245.703125 676.308594 232.152344 718.867188 224.640625 777.132812 C 203.753906 939.097656 163.355469 1053.765625 104.574219 1117.945312 C 16.335938 1214.289062 -103.09375 1262.371094 -166.433594 1282.457031 C -171.046875 1283.917969 -171.210938 1283.988281 -171.3125 1284.195312 L -171.078125 1284.3125 L -170.898438 1284.503906 C -170.683594 1284.363281 -168.835938 1283.777344 -166.28125 1282.964844 C -152.375 1278.554688 -110.082031 1265.144531 -58.402344 1238.925781 C 7.152344 1205.667969 62.117188 1165.082031 104.960938 1118.304688 C 135.738281 1084.707031 161.839844 1036.324219 182.542969 974.507812 C 201.070312 919.179688 215.414062 852.800781 225.160156 777.203125 C 241.03125 654.148438 284.25 607.199219 353.542969 567.695312 C 442.230469 517.125 515.582031 487.925781 571.5625 480.914062 C 584.570312 479.285156 598.25 478.898438 612.230469 479.773438 C 644.339844 481.65625 668.394531 490.851562 691.664062 499.757812 C 719.300781 510.328125 745.40625 520.3125 782.738281 517.804688 C 789.15625 517.375 795.496094 517.152344 801.632812 516.941406 L 803.078125 516.894531 C 870.234375 514.558594 899.414062 503.734375 922.859375 495.027344 C 952.410156 484.0625 970.25 477.4375 1040.753906 497.535156 C 1041.988281 497.882812 1043.230469 498.273438 1044.425781 498.648438 C 1047.289062 499.535156 1050.253906 500.460938 1053.238281 500.941406 C 1082.8125 505.691406 1104.757812 502.484375 1120.339844 491.144531 C 1145.320312 472.964844 1151.101562 435.539062 1157.230469 395.921875 C 1163.417969 355.859375 1170.441406 310.449219 1198.722656 278.277344 C 1262.867188 205.308594 1382.765625 155.871094 1504.179688 152.328125 C 1588.269531 149.871094 1615.007812 146.003906 1615.265625 145.96875 L 1615.1875 145.441406 C 1614.925781 145.480469 1588.210938 149.34375 1504.160156 151.800781 C 1447.253906 153.460938 1389.335938 165.214844 1336.664062 185.792969 C 1308.957031 196.617188 1283.429688 209.691406 1260.683594 224.609375 C 1236.523438 240.453125 1215.511719 258.378906 1198.328125 277.929688 C 1169.941406 310.222656 1162.90625 355.707031 1156.707031 395.839844 C 1150.601562 435.347656 1144.832031 472.664062 1120.027344 490.71875 C 1104.570312 501.976562 1082.75 505.140625 1053.324219 500.421875 C 1050.371094 499.945312 1047.558594 499.074219 1044.585938 498.144531 C 1043.382812 497.769531 1042.140625 497.378906 1040.894531 497.03125 C 1007.652344 487.558594 984.632812 483.589844 966.25 484.167969 C 949.15625 484.707031 937.472656 489.042969 922.675781 494.535156 C 899.261719 503.222656 870.128906 514.039062 803.058594 516.367188 L 801.613281 516.417969 C 795.476562 516.628906 789.128906 516.847656 782.703125 517.277344 C 745.488281 519.773438 719.4375 509.808594 691.855469 499.265625 C 668.550781 490.351562 644.453125 481.132812 612.261719 479.25 C 598.257812 478.375 584.539062 478.761719 571.5 480.390625 C 515.449219 487.417969 442.035156 516.632812 353.285156 567.234375 C 346.074219 571.339844 339.304688 575.46875 332.9375 579.644531 Z M 332.9375 579.644531 " fill-opacity="1" fill-rule="nonzero"/></g></g></g><g clip-path="url(#8e39dac60f)"><g clip-path="url(#3a848e8d97)"><g clip-path="url(#950a4c421b)"><path fill="#b48fc6" d="M 314.074219 597.027344 C 292.339844 611.285156 276.410156 626.585938 263.65625 644.984375 C 241.65625 676.710938 228.472656 719.535156 222.183594 779.757812 C 210.734375 889.300781 181.703125 1037.886719 108.410156 1123.671875 C 45.191406 1197.675781 -48.628906 1259.570312 -155.753906 1297.957031 C -160.433594 1299.636719 -160.816406 1299.785156 -160.929688 1300.011719 L -160.453125 1300.242188 L -160.695312 1300.128906 L -160.507812 1300.308594 C -160.300781 1300.136719 -158.316406 1299.4375 -155.578125 1298.457031 C -48.367188 1260.042969 45.527344 1198.09375 108.808594 1124.019531 C 138.835938 1088.871094 164.023438 1039.730469 183.671875 977.964844 C 201.785156 921.003906 214.921875 854.339844 222.707031 779.8125 C 235.746094 655.019531 278.566406 611.882812 353.019531 575.953125 C 360.738281 572.226562 368.492188 568.457031 376.261719 564.6875 C 443.070312 532.222656 512.152344 498.648438 569.757812 487.429688 C 582.039062 485.039062 595.003906 483.671875 609.386719 483.246094 C 642.730469 482.261719 667.773438 489 692 495.507812 C 717.179688 502.277344 743.222656 509.28125 778.328125 507.378906 C 785.195312 507.007812 791.84375 506.949219 798.621094 506.910156 C 859.277344 506.59375 888.839844 501.136719 910.417969 497.15625 C 942.003906 491.324219 956.417969 488.664062 1028.28125 511.460938 C 1029.496094 511.847656 1030.714844 512.269531 1031.898438 512.683594 C 1034.722656 513.664062 1037.640625 514.675781 1040.621094 515.207031 C 1078.4375 521.9375 1103.484375 515.035156 1119.441406 493.488281 C 1133.804688 474.089844 1139.453125 444.527344 1145.429688 413.222656 C 1153.023438 373.484375 1161.628906 328.441406 1189.960938 294.488281 C 1257.554688 213.480469 1377.257812 155.847656 1494.917969 147.660156 C 1583.117188 141.523438 1607.65625 134.742188 1607.894531 134.671875 L 1607.75 134.160156 C 1607.515625 134.226562 1583 140.996094 1494.882812 147.132812 C 1438.695312 151.042969 1380.617188 166.457031 1326.929688 191.703125 C 1271.0625 217.976562 1223.558594 253.398438 1189.550781 294.152344 C 1161.132812 328.210938 1152.515625 373.328125 1144.90625 413.132812 C 1138.941406 444.371094 1133.304688 473.875 1119.011719 493.175781 C 1103.1875 514.542969 1078.300781 521.378906 1040.707031 514.691406 C 1037.765625 514.164062 1034.863281 513.160156 1032.0625 512.1875 C 1030.878906 511.773438 1029.648438 511.347656 1028.425781 510.960938 C 956.433594 488.121094 941.980469 490.789062 910.308594 496.636719 C 888.746094 500.617188 859.210938 506.070312 798.597656 506.386719 C 791.816406 506.421875 785.15625 506.484375 778.28125 506.859375 C 743.261719 508.753906 717.261719 501.761719 692.121094 495.007812 C 667.859375 488.480469 642.773438 481.738281 609.351562 482.722656 C 594.9375 483.148438 581.953125 484.523438 569.636719 486.921875 C 511.964844 498.152344 442.851562 531.738281 376.007812 564.21875 C 368.246094 567.992188 360.488281 571.757812 352.769531 575.484375 C 338.089844 582.566406 325.304688 589.660156 314.074219 597.027344 Z M 314.074219 597.027344 " fill-opacity="1" fill-rule="nonzero"/></g></g></g><g clip-path="url(#b4c019256b)"><g clip-path="url(#be8c63d6c0)"><g clip-path="url(#3fdd49335e)"><path fill="#b48fc6" d="M 298.933594 610.445312 C 282.65625 621.121094 270.273438 632.808594 259.960938 646.753906 C 248.753906 661.90625 240.128906 679.820312 233.59375 701.507812 C 226.851562 723.890625 222.3125 750.351562 219.714844 782.386719 C 207.359375 934.71875 169.191406 1057.960938 112.242188 1129.40625 C 51.136719 1206.058594 -40.269531 1271.421875 -145.152344 1313.453125 C -149.9375 1315.371094 -150.441406 1315.59375 -150.554688 1315.828125 L -150.316406 1315.949219 L -150.117188 1316.117188 C -149.894531 1315.925781 -147.824219 1315.097656 -144.957031 1313.945312 C -131.414062 1308.523438 -90.207031 1292.003906 -41.175781 1262.230469 C 20.820312 1224.585938 72.574219 1180.011719 112.652344 1129.734375 C 169.667969 1058.203125 207.878906 934.859375 220.242188 782.425781 C 230.585938 654.84375 271.125 616.859375 352.484375 584.214844 C 381.9375 572.394531 411.257812 558.839844 439.613281 545.730469 C 485.644531 524.449219 529.125 504.347656 567.941406 493.949219 C 579.558594 490.835938 591.820312 488.539062 606.527344 486.71875 C 642.484375 482.265625 668.277344 486.382812 695.585938 490.75 C 718.648438 494.4375 742.5 498.246094 773.90625 496.960938 C 780.929688 496.671875 787.789062 496.777344 794.152344 496.933594 C 835.496094 497.949219 862.152344 497.507812 881.625 497.195312 C 932.222656 496.371094 933.1875 496.355469 1015.800781 525.390625 C 1016.984375 525.804688 1018.171875 526.261719 1019.320312 526.707031 C 1022.113281 527.78125 1025.007812 528.890625 1028 529.476562 C 1064.515625 536.640625 1089.089844 530.253906 1105.335938 509.390625 C 1120.023438 490.527344 1126.722656 461.167969 1133.8125 430.085938 C 1142.773438 390.800781 1152.933594 346.277344 1181.199219 310.703125 C 1252.417969 221.0625 1371.925781 155.238281 1485.660156 143 C 1577.957031 133.070312 1600.3125 123.472656 1600.523438 123.378906 L 1600.308594 122.894531 C 1600.09375 122.988281 1577.757812 132.554688 1485.597656 142.46875 C 1429.96875 148.453125 1371.742188 167.507812 1317.199219 197.566406 C 1305.835938 203.832031 1294.789062 210.488281 1284.109375 217.492188 C 1243.582031 244.078125 1208.300781 275.730469 1180.777344 310.371094 C 1152.4375 346.039062 1142.265625 390.625 1133.289062 429.964844 C 1126.214844 460.988281 1119.523438 490.292969 1104.910156 509.0625 C 1088.796875 529.75 1064.390625 536.070312 1028.09375 528.953125 C 1025.144531 528.375 1022.28125 527.273438 1019.503906 526.207031 C 1018.351562 525.761719 1017.15625 525.304688 1015.972656 524.886719 C 933.269531 495.816406 932.300781 495.835938 881.609375 496.660156 C 862.144531 496.976562 835.492188 497.410156 794.164062 496.398438 C 787.785156 496.242188 780.914062 496.136719 773.878906 496.429688 C 742.53125 497.714844 718.707031 493.90625 695.664062 490.222656 C 668.320312 485.855469 642.488281 481.730469 606.460938 486.191406 C 591.730469 488.015625 579.441406 490.320312 567.800781 493.4375 C 528.941406 503.84375 485.445312 523.960938 439.386719 545.253906 C 411.039062 558.359375 381.722656 571.914062 352.285156 583.726562 C 330.652344 592.410156 313.277344 601.035156 298.933594 610.445312 Z M 298.933594 610.445312 " fill-opacity="1" fill-rule="nonzero"/></g></g></g><g clip-path="url(#85df0ae247)"><g clip-path="url(#ae26a45242)"><g clip-path="url(#95c700ef93)"><path fill="#b48fc6" d="M 286.933594 620.691406 C 275.242188 628.355469 264.996094 637.375 256.214844 648.488281 C 244.789062 662.949219 236.167969 680.53125 229.859375 702.242188 C 223.328125 724.722656 219.203125 751.792969 217.257812 785.007812 C 208.46875 934.890625 172.539062 1059.234375 116.078125 1135.136719 C 57.054688 1214.488281 -31.976562 1283.320312 -134.609375 1328.957031 C -139.292969 1331.039062 -140.046875 1331.390625 -140.175781 1331.652344 L -139.941406 1331.769531 L -139.726562 1331.929688 C -139.511719 1331.71875 -137.363281 1330.765625 -134.394531 1329.441406 C -119.652344 1322.890625 -80.507812 1305.46875 -32.753906 1273.941406 C 27.554688 1234.117188 77.773438 1187.519531 116.503906 1135.449219 C 144.988281 1097.160156 168.300781 1046.503906 185.800781 984.890625 C 202.75 925.210938 213.511719 857.96875 217.789062 785.039062 C 225.402344 655.167969 265.335938 620.667969 351.960938 592.472656 C 395.328125 578.359375 436.335938 558.773438 475.992188 539.828125 C 508.0625 524.511719 538.347656 510.046875 566.144531 500.460938 C 579.941406 495.703125 592.867188 492.597656 603.695312 490.183594 C 644.996094 480.976562 673.246094 482.742188 705.964844 484.792969 C 725.042969 485.988281 744.773438 487.21875 769.503906 486.535156 C 776.894531 486.332031 784.183594 486.648438 789.707031 486.949219 C 898.296875 492.851562 904.15625 495.5625 942.273438 513.21875 C 955.789062 519.480469 974.3125 528.058594 1003.332031 539.3125 C 1004.46875 539.753906 1005.609375 540.238281 1006.710938 540.699219 C 1009.492188 541.871094 1012.371094 543.089844 1015.382812 543.734375 C 1092.167969 560.242188 1105.527344 510.003906 1122.445312 446.410156 C 1132.726562 407.730469 1144.386719 363.898438 1172.445312 326.898438 C 1247.394531 228.074219 1366.707031 154.054688 1476.410156 138.320312 C 1572.785156 124.5 1592.980469 112.183594 1593.167969 112.058594 L 1592.882812 111.613281 C 1592.691406 111.734375 1572.511719 124 1476.332031 137.796875 C 1421.097656 145.714844 1362.710938 168.398438 1307.484375 203.390625 C 1254.550781 236.933594 1207.707031 279.527344 1172.019531 326.578125 C 1143.898438 363.65625 1132.226562 407.546875 1121.929688 446.269531 C 1113.34375 478.558594 1105.929688 506.441406 1090.957031 524.777344 C 1074.542969 544.894531 1050.5625 550.75 1015.492188 543.210938 C 1012.527344 542.574219 1009.675781 541.371094 1006.914062 540.207031 C 1005.808594 539.738281 1004.664062 539.257812 1003.515625 538.8125 C 974.511719 527.5625 956 518.988281 942.488281 512.726562 C 904.292969 495.035156 898.421875 492.3125 789.726562 486.414062 C 784.191406 486.109375 776.886719 485.789062 769.480469 485.996094 C 744.773438 486.679688 725.054688 485.445312 705.984375 484.253906 C 673.230469 482.203125 644.941406 480.4375 603.566406 489.660156 C 592.726562 492.078125 579.777344 495.1875 565.957031 499.953125 C 538.136719 509.546875 507.832031 524.023438 475.753906 539.347656 C 436.109375 558.28125 395.121094 577.859375 351.785156 591.960938 C 326.761719 600.125 305.101562 608.773438 286.933594 620.691406 Z M 286.933594 620.691406 " fill-opacity="1" fill-rule="nonzero"/></g></g></g><g clip-path="url(#864ed7b913)"><g clip-path="url(#dd8f087ea7)"><g clip-path="url(#abefe9afc3)"><path fill="#b48fc6" d="M 276.363281 629.160156 C 267.363281 635.066406 259.410156 641.941406 252.429688 650.199219 C 228.894531 678.015625 217.289062 720.402344 214.796875 787.640625 C 209.417969 932.996094 174.835938 1061.746094 119.917969 1140.875 C 62.109375 1224.164062 -22.277344 1294.5625 -124.121094 1344.472656 C -128.816406 1346.769531 -129.664062 1347.207031 -129.796875 1347.476562 L -129.558594 1347.59375 L -129.339844 1347.742188 C -129.128906 1347.507812 -126.933594 1346.433594 -123.886719 1344.945312 C -109.40625 1337.847656 -70.9375 1318.996094 -24.433594 1285.699219 C 34.234375 1243.691406 82.949219 1195.066406 120.351562 1141.171875 C 148.035156 1101.285156 170.398438 1049.875 186.820312 988.363281 C 203.0625 927.527344 212.652344 859.996094 215.332031 787.65625 C 217.816406 720.546875 229.386719 678.261719 252.835938 650.539062 C 275.011719 624.328125 307.007812 612.050781 351.433594 600.734375 C 405.484375 586.972656 455.796875 561.066406 500.191406 538.21875 C 522.824219 526.5625 544.207031 515.558594 564.335938 506.984375 C 577.257812 501.480469 589.457031 497.382812 600.847656 493.652344 C 653.554688 476.414062 685.382812 476.375 733.554688 476.304688 C 743.464844 476.292969 753.714844 476.28125 765.09375 476.121094 C 770.945312 476.035156 777.351562 476.3125 785.246094 476.976562 C 879.570312 484.933594 895.386719 496.097656 921.589844 514.59375 C 936.109375 524.839844 954.175781 537.59375 990.859375 553.246094 C 991.941406 553.707031 993.023438 554.207031 994.074219 554.691406 C 996.851562 555.972656 999.71875 557.292969 1002.765625 558.007812 C 1036.902344 566.019531 1060.679688 560.511719 1077.585938 540.675781 C 1093.019531 522.570312 1101.539062 494.558594 1111.40625 462.121094 C 1122.933594 424.21875 1136.003906 381.257812 1163.683594 343.121094 C 1242.433594 234.601562 1361.550781 152.390625 1467.152344 133.664062 C 1567.5625 115.859375 1585.628906 100.914062 1585.800781 100.765625 L 1585.449219 100.367188 C 1585.277344 100.511719 1567.21875 115.382812 1467.054688 133.144531 C 1418.164062 141.8125 1366.457031 163.574219 1316.382812 196.410156 C 1310.140625 200.507812 1303.929688 204.769531 1297.75 209.203125 C 1246.527344 245.953125 1200.019531 292.152344 1163.25 342.808594 C 1135.519531 381.023438 1122.4375 424.027344 1110.898438 461.96875 C 1101.046875 494.347656 1092.539062 522.3125 1077.179688 540.335938 C 1060.414062 560.007812 1036.800781 565.457031 1002.878906 557.496094 C 999.886719 556.792969 997.042969 555.480469 994.285156 554.214844 C 993.234375 553.734375 992.148438 553.230469 991.0625 552.765625 C 954.429688 537.128906 936.390625 524.398438 921.890625 514.164062 C 895.617188 495.617188 879.753906 484.417969 785.289062 476.449219 C 777.371094 475.777344 770.949219 475.507812 765.082031 475.589844 C 753.707031 475.746094 743.460938 475.761719 733.550781 475.777344 C 685.328125 475.847656 653.46875 475.886719 600.679688 493.15625 C 589.277344 496.886719 577.058594 500.988281 564.128906 506.5 C 543.980469 515.078125 522.59375 526.09375 499.949219 537.75 C 455.578125 560.589844 405.292969 586.476562 351.304688 600.226562 C 320.738281 608.007812 296.046875 616.25 276.363281 629.160156 Z M 276.363281 629.160156 " fill-opacity="1" fill-rule="nonzero"/></g></g></g><g clip-path="url(#dc8fa8eed8)"><g clip-path="url(#82abe143f6)"><g clip-path="url(#2389964ef9)"><path fill="#b48fc6" d="M 267.144531 636.101562 C 260.277344 640.605469 254.128906 645.792969 248.597656 651.882812 C 224.644531 678.253906 213.457031 720.933594 212.335938 790.269531 C 210.019531 933.34375 177.730469 1063.226562 123.75 1146.605469 C 67.996094 1232.734375 -14.113281 1306.523438 -113.695312 1359.992188 C -118.347656 1362.496094 -119.277344 1363.007812 -119.417969 1363.296875 L -119.183594 1363.414062 L -118.957031 1363.554688 C -118.746094 1363.308594 -116.523438 1362.109375 -113.441406 1360.453125 C -99.226562 1352.820312 -61.480469 1332.550781 -16.203125 1297.492188 C 40.871094 1253.296875 88.113281 1202.628906 124.199219 1146.890625 C 151.066406 1105.390625 172.464844 1053.222656 187.804688 991.839844 C 203.273438 929.945312 211.707031 862.128906 212.867188 790.269531 C 213.984375 721.070312 225.128906 678.5 248.988281 652.226562 C 271.03125 627.96875 303.046875 618.003906 350.902344 608.988281 C 413.875 597.128906 468.898438 565.867188 517.445312 538.289062 C 533.238281 529.316406 548.148438 520.84375 562.519531 513.488281 C 574.386719 507.414062 586.058594 502.320312 596.355469 497.828125 L 597.992188 497.117188 C 659.5 470.261719 692.554688 465.714844 760.667969 465.6875 C 766.640625 465.6875 773.035156 466.101562 780.78125 466.988281 C 869.902344 477.203125 887.761719 495.410156 910.371094 518.46875 C 924.6875 533.070312 940.910156 549.613281 978.375 567.167969 C 979.386719 567.636719 980.398438 568.148438 981.378906 568.640625 C 984.160156 570.03125 987.039062 571.476562 990.128906 572.265625 C 1023.214844 580.714844 1046.695312 575.546875 1064.015625 556.011719 C 1079.90625 538.089844 1089.597656 509.796875 1100.824219 477.035156 C 1113.476562 440.105469 1127.820312 398.25 1154.914062 359.324219 C 1220.636719 264.882812 1334.742188 154.78125 1457.882812 128.992188 C 1512.429688 117.566406 1542.273438 107.4375 1557.707031 100.957031 C 1574.472656 93.914062 1578.265625 89.625 1578.417969 89.445312 L 1578.015625 89.101562 C 1577.867188 89.273438 1561.886719 106.671875 1457.773438 128.472656 C 1429.167969 134.464844 1399.671875 145.3125 1370.089844 160.722656 C 1342.683594 175 1315.0625 193.25 1288 214.972656 C 1238.683594 254.554688 1192.511719 304.363281 1154.472656 359.023438 C 1127.34375 398.007812 1112.992188 439.90625 1100.320312 476.867188 C 1077.824219 542.527344 1061.566406 589.964844 990.257812 571.757812 C 987.222656 570.980469 984.371094 569.550781 981.609375 568.171875 C 980.628906 567.675781 979.609375 567.167969 978.59375 566.691406 C 941.21875 549.179688 925.03125 532.671875 910.746094 518.105469 C 888.0625 494.972656 870.144531 476.703125 780.835938 466.464844 C 773.070312 465.574219 766.65625 465.164062 760.660156 465.164062 C 729.035156 465.175781 702.753906 466.132812 677.304688 470.773438 C 652.875 475.226562 629.082031 482.960938 597.765625 496.632812 L 596.132812 497.34375 C 585.828125 501.84375 574.148438 506.9375 562.261719 513.019531 C 547.882812 520.378906 532.964844 528.855469 517.164062 537.824219 C 468.652344 565.382812 413.667969 596.621094 350.785156 608.464844 C 314.820312 615.253906 287.765625 622.574219 267.144531 636.101562 Z M 267.144531 636.101562 " fill-opacity="1" fill-rule="nonzero"/></g></g></g><g clip-path="url(#53ead7d78a)"><g clip-path="url(#ab650fa7c0)"><g clip-path="url(#ccea1dda4b)"><path fill="#b48fc6" d="M 258.769531 642.042969 C 253.695312 645.375 249.003906 649.171875 244.738281 653.535156 C 220.34375 678.476562 209.59375 721.457031 209.878906 792.894531 C 210.433594 933.765625 180.441406 1064.78125 127.589844 1152.339844 C 73.863281 1241.347656 -5.980469 1318.519531 -103.3125 1375.53125 C -107.632812 1378.0625 -108.882812 1378.804688 -109.042969 1379.125 L -108.574219 1379.375 C -108.367188 1379.109375 -106.136719 1377.800781 -103.042969 1375.988281 C -89.117188 1367.835938 -52.117188 1346.160156 -8.042969 1309.347656 C 47.480469 1262.964844 93.269531 1210.234375 128.046875 1152.617188 C 154.082031 1109.484375 174.515625 1056.566406 188.773438 995.332031 C 203.414062 932.476562 210.691406 864.367188 210.414062 792.890625 C 210.132812 721.601562 220.835938 678.738281 245.125 653.902344 C 269.242188 629.242188 307.0625 622.714844 350.382812 617.25 C 421.164062 608.332031 479.09375 571.539062 530.195312 539.074219 C 540.820312 532.324219 550.859375 525.953125 560.714844 520.011719 C 570.492188 514.125 579.863281 508.976562 588.925781 504.007812 C 591.035156 502.851562 593.113281 501.710938 595.148438 500.585938 C 657.109375 466.375 690.765625 454.390625 756.261719 455.273438 C 762.335938 455.359375 768.714844 455.910156 776.328125 457.015625 C 863.03125 469.585938 880.910156 494.515625 901.613281 523.371094 C 915.40625 542.605469 929.675781 562.5 965.898438 581.097656 C 966.824219 581.574219 967.75 582.078125 968.648438 582.566406 C 971.449219 584.089844 974.351562 585.664062 977.511719 586.542969 C 994.4375 591.230469 1008.660156 592.09375 1020.992188 589.175781 C 1032.328125 586.492188 1042.066406 580.585938 1050.757812 571.109375 C 1067.1875 553.195312 1078.175781 524.359375 1090.894531 490.964844 C 1104.496094 455.253906 1119.917969 414.773438 1146.152344 375.539062 C 1188.933594 311.5625 1304.039062 159.015625 1448.625 124.328125 C 1505.238281 110.746094 1535.484375 98.929688 1550.886719 91.410156 C 1567.632812 83.238281 1570.910156 78.335938 1571.042969 78.132812 L 1570.597656 77.847656 C 1570.5625 77.894531 1567.195312 82.886719 1550.5 91.011719 C 1535.113281 98.5 1504.925781 110.273438 1448.503906 123.8125 C 1392.828125 137.171875 1335.550781 169.78125 1278.257812 220.730469 C 1218.660156 273.730469 1173.289062 334.007812 1145.714844 375.242188 C 1119.445312 414.527344 1104.015625 455.03125 1090.40625 490.773438 C 1077.703125 524.113281 1066.738281 552.90625 1050.375 570.75 C 1032.691406 590.019531 1009.589844 594.878906 977.660156 586.023438 C 974.558594 585.167969 971.683594 583.605469 968.910156 582.097656 C 968.007812 581.601562 967.078125 581.097656 966.152344 580.625 C 930.039062 562.078125 915.8125 542.238281 902.054688 523.058594 C 891.828125 508.804688 882.167969 495.34375 864.164062 483.824219 C 844.003906 470.929688 816.121094 462.246094 776.414062 456.480469 C 768.773438 455.375 762.375 454.820312 756.277344 454.738281 C 723.238281 454.289062 697.625 457.335938 673.226562 464.609375 C 647.964844 472.132812 623.644531 484.246094 594.902344 500.121094 C 592.867188 501.246094 590.785156 502.382812 588.679688 503.542969 C 579.609375 508.515625 570.234375 513.664062 560.453125 519.558594 C 550.585938 525.503906 540.546875 531.878906 529.921875 538.628906 C 478.859375 571.058594 420.988281 607.8125 350.320312 616.726562 C 314.539062 621.238281 282.496094 626.480469 258.769531 642.042969 Z M 258.769531 642.042969 " fill-opacity="1" fill-rule="nonzero"/></g></g></g><g clip-path="url(#42954c95c3)"><g clip-path="url(#f498213159)"><g clip-path="url(#cb70f45576)"><path fill="#b48fc6" d="M 251.484375 646.773438 C 247.710938 649.246094 244.167969 652.027344 240.851562 655.171875 C 228.511719 666.859375 219.886719 683.191406 214.476562 705.109375 C 208.835938 727.996094 206.527344 757.570312 207.417969 795.527344 C 210.671875 934.289062 182.96875 1066.433594 131.425781 1158.074219 C 79.714844 1250.011719 2.117188 1330.578125 -92.980469 1391.089844 C -97.253906 1393.8125 -98.5 1394.609375 -98.660156 1394.949219 L -98.191406 1395.195312 C -97.996094 1394.914062 -95.769531 1393.496094 -92.695312 1391.535156 C -79.0625 1382.859375 -42.84375 1359.816406 0.0429688 1321.246094 C 54.046875 1272.667969 98.40625 1217.859375 131.886719 1158.332031 C 157.070312 1113.550781 176.527344 1059.886719 189.710938 998.828125 C 203.476562 935.082031 209.613281 866.675781 207.945312 795.511719 C 206.226562 722.125 216.488281 678.960938 241.214844 655.554688 C 265.1875 632.855469 301.363281 628.785156 349.851562 625.515625 C 384.53125 623.175781 418.789062 613.101562 454.574219 594.71875 C 485.84375 578.660156 514.449219 558.207031 539.695312 540.164062 C 546.347656 535.40625 552.628906 530.917969 558.902344 526.53125 C 567.074219 520.824219 575.011719 515.554688 582.683594 510.457031 C 585.960938 508.28125 589.171875 506.152344 592.292969 504.054688 C 649.960938 465.03125 685.800781 443.039062 751.851562 444.855469 C 757.917969 445.023438 764.464844 445.738281 771.871094 447.035156 C 857.304688 462.039062 875 494.5625 893.738281 528.988281 C 906.253906 551.988281 919.203125 575.773438 953.429688 595.03125 C 954.242188 595.488281 955.054688 595.964844 955.859375 596.4375 C 958.703125 598.105469 961.648438 599.835938 964.894531 600.808594 C 981.394531 605.761719 995.371094 606.800781 1007.644531 603.980469 C 1018.960938 601.382812 1028.851562 595.46875 1037.878906 585.890625 C 1054.992188 567.75 1067.4375 538.003906 1081.847656 503.554688 C 1096.148438 469.375 1112.359375 430.636719 1137.390625 391.746094 C 1192.886719 305.539062 1305.902344 155.554688 1439.367188 119.65625 C 1498.027344 103.878906 1528.671875 90.378906 1544.054688 81.832031 C 1560.777344 72.542969 1563.546875 67.046875 1563.65625 66.816406 L 1563.175781 66.585938 C 1563.148438 66.640625 1560.296875 72.226562 1543.625 81.460938 C 1528.261719 89.976562 1497.679688 103.425781 1439.222656 119.148438 C 1383.425781 134.152344 1325.980469 170.261719 1268.496094 226.46875 C 1223.125 270.828125 1178.859375 326.339844 1136.945312 391.464844 C 1111.886719 430.394531 1095.667969 469.152344 1081.363281 503.355469 C 1066.972656 537.75 1054.539062 567.457031 1037.496094 585.527344 C 1019.183594 604.945312 996.164062 609.636719 965.050781 600.292969 C 961.867188 599.335938 958.949219 597.625 956.136719 595.972656 C 955.324219 595.496094 954.515625 595.019531 953.695312 594.558594 C 919.59375 575.375 906.691406 551.660156 894.207031 528.730469 C 884.71875 511.289062 875.753906 494.820312 858.21875 480.417969 C 838.402344 464.136719 810.992188 453.363281 771.964844 446.511719 C 764.535156 445.207031 757.960938 444.492188 751.867188 444.324219 C 720.238281 443.453125 694.707031 447.800781 669.085938 458.414062 C 644.515625 468.589844 620.648438 484.226562 592.003906 503.609375 C 588.882812 505.707031 585.675781 507.835938 582.398438 510.011719 C 574.722656 515.109375 566.785156 520.378906 558.609375 526.09375 C 552.328125 530.476562 546.046875 534.972656 539.394531 539.726562 C 486.929688 577.230469 427.46875 619.746094 349.824219 624.984375 C 307.902344 627.816406 275.15625 631.246094 251.484375 646.773438 Z M 251.484375 646.773438 " fill-opacity="1" fill-rule="nonzero"/></g></g></g><g clip-path="url(#9f73cb8757)"><g clip-path="url(#03158e0a64)"><g clip-path="url(#5ce9df38e4)"><path fill="#b48fc6" d="M 244.355469 651.15625 C 240.011719 654.007812 236.023438 657.3125 232.382812 661.164062 C 210.394531 684.390625 201.933594 726.640625 204.960938 798.152344 C 210.828125 936.914062 186.082031 1066.773438 135.269531 1163.804688 C 100.601562 1229.996094 34.648438 1325.867188 -82.691406 1406.671875 C -86.804688 1409.503906 -88.109375 1410.417969 -88.285156 1410.765625 L -87.8125 1411 L -88.042969 1410.886719 L -87.808594 1411.011719 C -87.621094 1410.71875 -85.425781 1409.207031 -82.386719 1407.113281 C -69.058594 1397.929688 -33.648438 1373.546875 8.074219 1333.210938 C 60.597656 1282.421875 103.546875 1225.511719 135.734375 1164.050781 C 160.050781 1117.613281 178.527344 1063.203125 190.644531 1002.332031 C 203.496094 937.765625 208.488281 869.066406 205.488281 798.128906 C 202.472656 726.765625 210.882812 684.636719 232.765625 661.527344 C 256.230469 636.746094 294.152344 634.445312 349.324219 633.769531 C 386.84375 633.3125 423.0625 623.234375 460.039062 602.964844 C 492.335938 585.261719 521.222656 561.957031 546.707031 541.394531 C 550.210938 538.574219 553.664062 535.78125 557.089844 533.039062 C 562.972656 528.328125 568.777344 523.785156 574.386719 519.390625 C 579.640625 515.273438 584.605469 511.382812 589.441406 507.515625 L 593.542969 504.210938 C 647.667969 460.585938 683.425781 431.761719 747.4375 434.433594 C 753.578125 434.6875 760.113281 435.546875 767.414062 437.054688 C 852.160156 454.554688 869.476562 495.574219 886.222656 535.246094 C 897.4375 561.8125 909.035156 589.28125 940.953125 608.953125 C 941.632812 609.367188 942.304688 609.792969 942.976562 610.21875 C 945.890625 612.066406 948.894531 613.976562 952.269531 615.074219 C 1018.511719 636.59375 1040.613281 587.941406 1074.058594 514.300781 C 1088.683594 482.105469 1105.261719 445.617188 1128.625 407.964844 C 1232.808594 240.101562 1331.417969 144.269531 1430.101562 115 C 1490.785156 96.996094 1521.832031 81.816406 1537.195312 72.25 C 1553.902344 61.847656 1556.175781 55.765625 1556.265625 55.507812 L 1555.765625 55.335938 C 1555.742188 55.398438 1553.390625 61.5625 1536.75 71.898438 C 1521.40625 81.425781 1490.421875 96.550781 1429.949219 114.488281 C 1404.246094 122.117188 1378.199219 134.585938 1351.976562 151.78125 C 1321.054688 172.0625 1289.890625 198.921875 1258.71875 232.199219 C 1215.582031 278.25 1172.875 335.65625 1128.171875 407.6875 C 1104.789062 445.367188 1088.203125 481.875 1073.578125 514.085938 C 1040.246094 587.46875 1018.226562 635.945312 952.4375 614.574219 C 949.128906 613.5 946.144531 611.605469 943.261719 609.777344 C 942.589844 609.351562 941.914062 608.921875 941.230469 608.503906 C 909.453125 588.929688 897.890625 561.539062 886.710938 535.046875 C 878.335938 515.199219 869.671875 494.675781 852.621094 477.273438 C 833.476562 457.734375 805.644531 444.410156 767.527344 436.539062 C 760.195312 435.027344 753.632812 434.164062 747.464844 433.902344 C 683.253906 431.222656 647.433594 460.09375 593.210938 503.792969 L 589.109375 507.097656 C 584.277344 510.964844 579.316406 514.851562 574.0625 518.96875 C 568.453125 523.367188 562.644531 527.914062 556.761719 532.625 C 553.335938 535.363281 549.878906 538.15625 546.378906 540.980469 C 493.375 583.738281 433.300781 632.199219 349.3125 633.234375 C 302.550781 633.8125 268.140625 635.554688 244.355469 651.15625 Z M 244.355469 651.15625 " fill-opacity="1" fill-rule="nonzero"/></g></g></g><g clip-path="url(#b5cfed9786)"><g clip-path="url(#9aa26cbfde)"><g clip-path="url(#e29b2c13ff)"><path fill="#b48fc6" d="M 237.742188 654.949219 C 234.054688 657.371094 230.710938 660.121094 227.671875 663.222656 C 205.84375 685.507812 198.082031 727.929688 202.496094 800.777344 C 210.792969 937.605469 188.28125 1068.566406 139.101562 1169.535156 C 105.832031 1237.84375 42.128906 1337.140625 -72.433594 1422.277344 C -76.449219 1425.261719 -77.722656 1426.222656 -77.902344 1426.589844 L -77.425781 1426.820312 C -77.25 1426.523438 -75.097656 1424.917969 -72.117188 1422.703125 C -59.09375 1413.03125 -24.515625 1387.324219 16.054688 1345.222656 C 67.128906 1292.222656 108.6875 1233.191406 139.574219 1169.765625 C 163.011719 1121.652344 180.496094 1066.496094 191.550781 1005.839844 C 203.457031 940.515625 207.316406 871.511719 203.023438 800.742188 C 198.613281 728.058594 206.332031 685.761719 228.050781 663.585938 C 251.71875 639.417969 289.347656 639.648438 348.796875 642.023438 C 388.917969 643.617188 426.753906 633.652344 464.476562 611.535156 C 497.441406 592.210938 526.28125 565.953125 551.730469 542.785156 L 555.277344 539.554688 C 558.335938 536.769531 561.367188 534.027344 564.363281 531.316406 C 572.164062 524.253906 579.53125 517.585938 586.582031 510.976562 C 590.132812 507.636719 593.601562 504.347656 597.003906 501.128906 C 646.375 454.375 682.039062 420.59375 743.023438 424.015625 C 749.230469 424.367188 755.746094 425.367188 762.953125 427.078125 C 847.363281 447.128906 863.363281 495.4375 878.839844 542.148438 C 889.199219 573.433594 898.988281 602.976562 928.472656 622.882812 C 928.96875 623.214844 929.457031 623.554688 929.949219 623.890625 C 932.96875 625.953125 936.089844 628.09375 939.640625 629.339844 C 955.570312 634.933594 969.363281 636.265625 981.8125 633.402344 C 993.359375 630.746094 1003.867188 624.421875 1013.917969 614.066406 C 1033.042969 594.351562 1048.523438 562.5625 1068.125 522.308594 C 1082.5 492.777344 1098.800781 459.308594 1119.855469 424.179688 C 1194.8125 299.113281 1296.761719 150.414062 1420.835938 110.335938 C 1483.527344 90.085938 1514.980469 73.222656 1530.320312 62.636719 C 1547.011719 51.125 1548.796875 44.480469 1548.867188 44.199219 L 1548.355469 44.074219 C 1548.335938 44.144531 1546.484375 50.878906 1529.863281 62.308594 C 1514.53125 72.847656 1483.148438 89.652344 1420.671875 109.828125 C 1390.683594 119.519531 1360.148438 136.261719 1329.914062 159.601562 C 1303.261719 180.175781 1276.019531 206.523438 1248.9375 237.910156 C 1196.507812 298.675781 1152.175781 369.226562 1119.40625 423.90625 C 1098.339844 459.058594 1082.035156 492.539062 1067.648438 522.078125 C 1048.070312 562.285156 1032.605469 594.042969 1013.535156 613.695312 C 993 634.859375 970.265625 639.53125 939.820312 628.839844 C 936.335938 627.613281 933.242188 625.496094 930.25 623.453125 C 929.757812 623.117188 929.261719 622.777344 928.769531 622.441406 C 899.433594 602.640625 889.675781 573.171875 879.339844 541.976562 C 863.820312 495.125 847.773438 446.679688 763.078125 426.5625 C 755.839844 424.84375 749.289062 423.835938 743.050781 423.488281 C 710.160156 421.640625 684.625 430.558594 660.363281 446.46875 C 639.46875 460.175781 619.53125 479.0625 596.644531 500.738281 C 593.238281 503.960938 589.773438 507.246094 586.226562 510.585938 C 579.175781 517.1875 571.808594 523.855469 564.011719 530.914062 C 561.015625 533.625 557.984375 536.367188 554.921875 539.15625 L 551.371094 542.382812 C 498.503906 590.511719 438.585938 645.066406 348.816406 641.484375 C 318.910156 640.289062 296.214844 639.640625 276.523438 642.152344 C 260.421875 644.226562 247.792969 648.359375 237.742188 654.949219 Z M 237.742188 654.949219 " fill-opacity="1" fill-rule="nonzero"/></g></g></g><g clip-path="url(#1e3f7d5d50)"><g clip-path="url(#bc7110153c)"><g clip-path="url(#41eefaa526)"><path fill="#b48fc6" d="M 231.539062 658.257812 C 228.472656 660.273438 225.601562 662.578125 222.9375 665.21875 C 201.28125 686.644531 194.214844 729.261719 200.035156 803.410156 C 210.632812 938.410156 190.355469 1070.480469 142.941406 1175.269531 C 111.0625 1245.730469 49.589844 1348.496094 -62.214844 1437.925781 C -66.015625 1440.964844 -67.339844 1442.035156 -67.523438 1442.414062 L -67.046875 1442.644531 C -66.882812 1442.335938 -64.78125 1440.660156 -61.878906 1438.339844 C -49.179688 1428.175781 -15.4375 1401.195312 23.996094 1357.320312 C 73.640625 1302.085938 113.824219 1240.910156 143.425781 1175.484375 C 165.957031 1125.6875 182.445312 1069.796875 192.453125 1009.367188 C 203.382812 943.339844 206.113281 874.027344 200.566406 803.359375 C 194.765625 729.382812 201.78125 686.890625 223.3125 665.585938 C 247.84375 641.320312 289.9375 645.070312 348.195312 650.269531 L 348.269531 650.277344 C 390.402344 654.03125 429.234375 644.480469 466.980469 621.070312 C 500.734375 600.121094 528.746094 571.410156 553.464844 546.066406 C 563.390625 535.886719 573.910156 525.054688 583.730469 514.4375 C 588.332031 509.445312 592.828125 504.507812 597.171875 499.730469 C 643.132812 449.269531 679.429688 409.410156 738.613281 413.597656 C 744.875 414.039062 751.378906 415.1875 758.503906 417.097656 C 842.8125 439.761719 857.382812 495.636719 871.476562 549.675781 C 880.476562 584.195312 888.980469 616.792969 916 636.804688 L 916.714844 637.332031 C 919.910156 639.703125 923.210938 642.160156 927.03125 643.605469 C 957.574219 655.203125 981.140625 650.066406 1003.433594 626.957031 C 1024.152344 605.484375 1042.203125 570.40625 1065.050781 526.003906 C 1078.292969 500.269531 1093.304688 471.101562 1111.101562 440.390625 C 1173.585938 332.574219 1278.164062 152.125 1411.578125 105.667969 C 1476.253906 83.140625 1508.105469 64.597656 1523.441406 53.007812 C 1540.121094 40.394531 1541.425781 33.195312 1541.476562 32.898438 L 1540.957031 32.816406 C 1540.945312 32.886719 1539.574219 40.183594 1522.972656 52.699219 C 1507.65625 64.246094 1475.863281 82.726562 1411.410156 105.167969 C 1381.015625 115.753906 1350.203125 133.960938 1319.84375 159.292969 C 1293.335938 181.40625 1266.183594 209.777344 1239.15625 243.617188 C 1189.972656 305.199219 1148.699219 374.460938 1110.648438 440.125 C 1092.839844 470.847656 1077.828125 500.023438 1064.582031 525.765625 C 1041.753906 570.132812 1023.722656 605.171875 1003.058594 626.597656 C 980.933594 649.53125 957.546875 654.625 927.222656 643.117188 C 923.476562 641.691406 920.34375 639.371094 917.035156 636.914062 L 916.320312 636.382812 C 889.445312 616.480469 880.964844 583.964844 871.984375 549.542969 C 865.0625 523.003906 857.90625 495.5625 841.875 471.777344 C 823.691406 444.8125 796.464844 426.757812 758.640625 416.589844 C 751.484375 414.667969 744.945312 413.515625 738.652344 413.074219 C 711.289062 411.136719 687.238281 418.234375 662.957031 435.390625 C 640.78125 451.0625 620.390625 473.457031 596.785156 499.378906 C 592.4375 504.15625 587.933594 509.089844 583.335938 514.082031 C 573.523438 524.695312 563.011719 535.519531 553.085938 545.699219 C 504.195312 595.835938 443.351562 658.230469 348.316406 649.75 L 348.242188 649.742188 C 296.140625 645.097656 256.933594 641.601562 231.539062 658.257812 Z M 231.539062 658.257812 " fill-opacity="1" fill-rule="nonzero"/></g></g></g><g clip-path="url(#4ee413d388)"><g clip-path="url(#add299945f)"><g clip-path="url(#54d843e1e6)"><path fill="#b48fc6" d="M 225.53125 661.289062 C 222.925781 662.996094 220.480469 664.9375 218.1875 667.136719 C 196.707031 687.78125 190.351562 730.613281 197.574219 806.03125 C 213.941406 976.902344 178.984375 1104.257812 146.777344 1181 C 103.054688 1285.195312 34.304688 1379.457031 -52.03125 1453.605469 C -55.683594 1456.742188 -56.953125 1457.847656 -57.144531 1458.234375 L -56.667969 1458.464844 C -56.511719 1458.15625 -54.488281 1456.414062 -51.683594 1454.007812 C -39.304688 1443.375 -6.429688 1415.136719 31.890625 1369.492188 C 80.144531 1312 118.964844 1248.652344 147.273438 1181.207031 C 168.878906 1129.71875 184.382812 1073.09375 193.34375 1012.90625 C 203.273438 946.222656 204.875 876.605469 198.105469 805.980469 C 190.898438 730.742188 197.207031 688.039062 218.558594 667.519531 C 242.785156 644.238281 285.0625 649.996094 343.574219 657.964844 L 347.746094 658.535156 C 391.109375 664.429688 430.203125 655.726562 467.269531 631.925781 C 499.375 611.316406 525.5 582.632812 551.648438 552.582031 C 562.714844 539.863281 572.273438 528.523438 580.867188 517.90625 C 585.894531 511.675781 590.808594 505.503906 595.558594 499.523438 C 640.566406 442.921875 676.113281 398.214844 734.203125 403.179688 C 740.515625 403.722656 747.011719 405.011719 754.046875 407.125 C 838.414062 432.460938 852.027344 499.074219 864.035156 557.84375 C 871.695312 595.316406 878.925781 630.707031 903.523438 650.734375 C 907.15625 653.691406 910.476562 656.265625 914.402344 657.878906 C 945.304688 670.566406 970.078125 664.53125 994.726562 638.304688 C 1017.773438 613.785156 1039.347656 573.382812 1066.660156 522.238281 C 1077.773438 501.421875 1089.269531 479.898438 1102.335938 456.609375 C 1104.496094 452.769531 1106.671875 448.875 1108.882812 444.9375 C 1179.007812 319.796875 1275.050781 148.402344 1402.316406 101.007812 C 1468.957031 76.195312 1501.210938 55.96875 1516.535156 43.367188 C 1533.214844 29.664062 1534.046875 21.925781 1534.074219 21.601562 L 1533.542969 21.554688 C 1533.539062 21.632812 1532.648438 29.476562 1516.054688 43.078125 C 1500.742188 55.628906 1468.546875 75.777344 1402.125 100.511719 C 1384.785156 106.972656 1368.007812 115.734375 1351.816406 126.355469 C 1248.988281 193.792969 1169.035156 336.5 1108.410156 444.683594 C 1106.207031 448.617188 1104.023438 452.511719 1101.867188 456.359375 C 1088.796875 479.648438 1077.304688 501.179688 1066.183594 522 C 1038.890625 573.113281 1017.335938 613.480469 994.335938 637.957031 C 969.859375 663.996094 945.261719 669.992188 914.597656 657.402344 C 910.734375 655.816406 907.578125 653.371094 903.851562 650.335938 C 879.402344 630.429688 872.1875 595.121094 864.550781 557.746094 C 858.410156 527.707031 852.0625 496.644531 836.582031 469.472656 C 818.960938 438.542969 792.003906 417.984375 754.195312 406.625 C 747.121094 404.503906 740.59375 403.203125 734.242188 402.660156 C 675.871094 397.667969 640.246094 442.472656 595.140625 499.203125 C 590.390625 505.175781 585.476562 511.355469 580.453125 517.582031 C 571.863281 528.195312 562.308594 539.535156 551.246094 552.242188 C 507.4375 602.59375 447.433594 671.558594 347.816406 658.019531 L 343.644531 657.453125 C 290.488281 650.207031 250.691406 644.785156 225.53125 661.289062 Z M 225.53125 661.289062 " fill-opacity="1" fill-rule="nonzero"/></g></g></g><g clip-path="url(#35f441f875)"><g clip-path="url(#e3640630bb)"><g clip-path="url(#ce45a57dba)"><path fill="#b48fc6" d="M 219.722656 664.054688 C 217.5 665.511719 215.40625 667.152344 213.429688 669 C 192.128906 688.917969 186.484375 731.992188 195.117188 808.65625 C 214.148438 977.523438 181.421875 1107.46875 150.617188 1186.734375 C 108.886719 1294.125 42.324219 1391.84375 -41.871094 1469.324219 C -45.359375 1472.53125 -46.574219 1473.664062 -46.765625 1474.058594 L -46.289062 1474.292969 C -46.128906 1473.964844 -44.191406 1472.179688 -41.507812 1469.710938 C -29.460938 1458.625 2.542969 1429.175781 39.761719 1381.738281 C 86.644531 1321.980469 124.109375 1256.429688 151.121094 1186.929688 C 181.945312 1107.601562 214.695312 977.574219 195.65625 808.601562 C 187.042969 732.121094 192.632812 689.1875 213.804688 669.394531 C 237.78125 646.976562 280.367188 654.683594 339.3125 665.359375 C 341.921875 665.832031 344.5625 666.308594 347.234375 666.792969 C 391.433594 674.757812 430.519531 667.101562 466.671875 643.386719 C 466.984375 643.183594 467.289062 642.984375 467.59375 642.777344 C 500.113281 621.167969 526.058594 589.585938 549.847656 559.097656 C 559.40625 546.839844 568.886719 534.144531 578.023438 521.367188 C 583.097656 514.257812 588.074219 507.160156 592.886719 500.300781 C 614.289062 469.785156 634.511719 440.960938 656.144531 421.09375 C 680.078125 399.121094 703.480469 390.121094 729.808594 392.765625 C 736.175781 393.40625 742.648438 394.839844 749.605469 397.148438 C 834.164062 425.230469 846.035156 500.363281 856.5 566.648438 C 862.839844 606.792969 868.824219 644.699219 891.066406 664.664062 C 894.179688 667.460938 897.636719 670.300781 901.796875 672.152344 C 933.859375 686.40625 960.820312 678.511719 989.21875 646.566406 C 1015.941406 616.503906 1042.8125 566.761719 1076.828125 503.777344 C 1082.222656 493.792969 1087.792969 483.46875 1093.582031 472.832031 C 1099.171875 462.5625 1104.8125 452.078125 1110.789062 440.96875 C 1145.652344 376.195312 1185.164062 302.78125 1231.734375 238.746094 C 1285.71875 164.511719 1338.488281 117.9375 1393.0625 96.351562 C 1461.644531 69.222656 1494.304688 47.320312 1509.628906 33.71875 C 1526.300781 18.921875 1526.675781 10.652344 1526.6875 10.308594 L 1526.15625 10.292969 C 1526.15625 10.378906 1525.734375 18.761719 1509.148438 33.441406 C 1493.839844 46.992188 1461.238281 68.820312 1392.871094 95.855469 C 1338.203125 117.480469 1285.351562 164.117188 1231.308594 238.429688 C 1184.710938 302.503906 1145.191406 375.929688 1110.324219 440.714844 C 1104.347656 451.820312 1098.707031 462.308594 1093.117188 472.574219 C 1087.328125 483.210938 1081.75 493.539062 1076.355469 503.523438 C 1042.355469 566.46875 1015.5 616.195312 988.816406 646.210938 C 960.59375 677.957031 933.820312 685.8125 902.007812 671.664062 C 897.914062 669.839844 894.5 667.03125 891.417969 664.265625 C 869.320312 644.429688 863.347656 606.609375 857.023438 566.566406 C 851.710938 532.933594 846.21875 498.152344 831.320312 467.449219 C 814.308594 432.378906 787.628906 409.222656 749.765625 396.644531 C 742.773438 394.320312 736.261719 392.882812 729.851562 392.234375 C 703.367188 389.570312 679.835938 398.617188 655.777344 420.703125 C 634.105469 440.605469 613.871094 469.453125 592.449219 499.992188 C 587.632812 506.855469 582.660156 513.949219 577.585938 521.058594 C 568.453125 533.832031 558.980469 546.519531 549.421875 558.773438 C 497.550781 625.265625 443.066406 683.527344 347.328125 666.269531 C 344.65625 665.785156 342.015625 665.308594 339.40625 664.835938 C 285.128906 655.007812 244.683594 647.679688 219.722656 664.054688 Z M 219.722656 664.054688 " fill-opacity="1" fill-rule="nonzero"/></g></g></g><g clip-path="url(#480a768e89)"><g clip-path="url(#f608c3bd4e)"><g clip-path="url(#30fa1d2b4f)"><path fill="#b48fc6" d="M 214.085938 666.605469 C 212.179688 667.855469 210.375 669.253906 208.664062 670.816406 C 187.539062 690.078125 182.601562 733.40625 192.664062 811.285156 C 209.789062 943.886719 196.578125 1075.695312 154.453125 1192.46875 C 114.871094 1303.191406 50.492188 1404.382812 -31.742188 1485.097656 C -34.902344 1488.195312 -36.191406 1489.472656 -36.390625 1489.882812 L -35.914062 1490.113281 C -35.75 1489.769531 -34.007812 1488.058594 -31.371094 1485.476562 C -19.636719 1473.957031 11.53125 1443.363281 47.679688 1394.136719 C 93.25 1332.085938 129.34375 1264.296875 154.957031 1192.644531 C 174.703125 1137.902344 188.222656 1079.828125 195.140625 1020.019531 C 202.984375 952.230469 202.324219 881.976562 193.1875 811.214844 C 183.152344 733.519531 188.03125 690.339844 209.019531 671.203125 C 232.785156 649.527344 275.804688 659.160156 335.332031 672.5 C 339.058594 673.335938 342.851562 674.183594 346.699219 675.042969 C 392.480469 685.21875 432.128906 678.214844 467.914062 653.609375 C 500.570312 631.164062 526.382812 596.414062 548.011719 565.605469 C 556.632812 553.328125 565.507812 539.988281 575.136719 524.832031 C 580.011719 517.15625 584.816406 509.460938 589.460938 502.015625 C 631.75 434.253906 668.277344 375.734375 725.371094 382.34375 C 731.695312 383.074219 738.347656 384.699219 745.128906 387.167969 C 829.992188 418.066406 839.964844 502.011719 848.765625 576.078125 C 854.035156 620.429688 858.589844 658.734375 878.570312 678.585938 C 882.207031 682.203125 885.574219 684.6875 889.152344 686.417969 C 905.921875 694.503906 921.65625 695.855469 937.265625 690.539062 C 952.09375 685.492188 966.976562 674.324219 982.761719 656.402344 C 1014.675781 620.164062 1049.242188 556.5625 1084.800781 489.046875 C 1093.191406 473.203125 1101.773438 456.554688 1110.851562 438.933594 C 1144.632812 373.382812 1182.929688 299.085938 1227.757812 234.902344 C 1279.542969 160.757812 1330.578125 113.910156 1383.785156 91.6875 C 1454.292969 62.234375 1487.355469 38.652344 1502.683594 24.058594 C 1519.359375 8.175781 1519.285156 -0.617188 1519.273438 -0.984375 L 1518.746094 -0.964844 C 1518.746094 -0.878906 1518.78125 8.039062 1502.199219 23.792969 C 1486.886719 38.339844 1453.878906 61.839844 1383.585938 91.203125 C 1370.660156 96.605469 1357.855469 103.460938 1345.136719 111.796875 C 1305.441406 137.832031 1266.601562 178.378906 1227.332031 234.597656 C 1182.476562 298.8125 1144.175781 373.128906 1110.390625 438.691406 C 1101.304688 456.316406 1092.730469 472.960938 1084.339844 488.804688 C 1048.792969 556.292969 1014.246094 619.867188 982.371094 656.054688 C 950.417969 692.335938 921.738281 701.550781 889.390625 685.945312 C 885.859375 684.246094 882.542969 681.785156 878.949219 678.214844 C 859.097656 658.496094 854.554688 620.28125 849.296875 576.03125 C 845.066406 540.445312 840.273438 500.121094 826.015625 465.75 C 809.671875 426.363281 783.269531 400.5 745.3125 386.675781 C 738.488281 384.191406 731.804688 382.5625 725.4375 381.824219 C 706.378906 379.621094 689.609375 384.609375 674.167969 394.738281 C 643.078125 415.132812 617.339844 456.371094 589.019531 501.75 C 584.371094 509.191406 579.574219 516.886719 574.699219 524.5625 C 565.070312 539.710938 556.203125 553.039062 547.585938 565.316406 C 498.347656 635.445312 445.941406 696.570312 346.820312 674.539062 C 342.96875 673.683594 339.175781 672.832031 335.449219 671.996094 C 280.019531 659.5625 238.871094 650.347656 214.085938 666.605469 Z M 214.085938 666.605469 " fill-opacity="1" fill-rule="nonzero"/></g></g></g><g clip-path="url(#46c000597f)"><g clip-path="url(#50fc802738)"><path fill="#b48fc6" d="M 208.574219 668.972656 C 206.933594 670.050781 205.371094 671.242188 203.878906 672.570312 C 182.933594 691.238281 178.714844 734.828125 190.203125 813.90625 C 243.019531 1177.558594 59.65625 1415.476562 -21.632812 1500.890625 C -24.597656 1504.007812 -25.808594 1505.289062 -26.015625 1505.703125 L -25.539062 1505.9375 C -25.363281 1505.574219 -23.730469 1503.855469 -21.25 1501.253906 C -12.238281 1491.785156 8.863281 1469.617188 34.960938 1434.929688 C 67.601562 1391.550781 96.179688 1344.421875 119.902344 1294.851562 C 151.734375 1228.335938 174.394531 1158.109375 187.257812 1086.121094 C 203.003906 998.011719 204.167969 906.402344 190.722656 813.832031 C 179.269531 734.945312 183.433594 691.503906 204.230469 672.96875 C 227.835938 651.9375 271.371094 663.480469 331.632812 679.453125 C 336.386719 680.710938 341.230469 681.996094 346.179688 683.292969 C 393.167969 695.617188 433.105469 689.457031 468.273438 664.441406 C 500.863281 641.261719 525.582031 604.632812 546.195312 572.117188 C 560.1875 550.046875 573.078125 526.988281 585.550781 504.691406 C 631.964844 421.675781 672.054688 349.984375 740.671875 377.179688 C 825.914062 410.96875 834.199219 508.089844 840.863281 586.128906 C 845.453125 639.960938 849.417969 686.453125 876.535156 700.679688 C 892.488281 709.050781 907.996094 710.660156 923.941406 705.609375 C 946.078125 698.59375 969.289062 678.265625 994.90625 643.453125 C 1017.992188 612.070312 1043.773438 568.160156 1076.050781 505.257812 C 1086.3125 485.25 1096.871094 463.757812 1108.042969 441.003906 C 1174.148438 306.390625 1256.417969 138.871094 1374.539062 87.015625 C 1446.953125 55.226562 1480.425781 29.964844 1495.757812 14.371094 C 1512.433594 -2.589844 1511.914062 -11.902344 1511.886719 -12.292969 L 1511.355469 -12.25 C 1511.363281 -12.152344 1511.851562 -2.707031 1495.265625 14.117188 C 1479.949219 29.65625 1446.535156 54.835938 1374.328125 86.53125 C 1362.773438 91.601562 1351.5625 97.777344 1340.679688 104.917969 C 1240.105469 170.886719 1167.253906 319.234375 1107.574219 440.773438 C 1096.402344 463.523438 1085.847656 485.011719 1075.589844 505.015625 C 1009.445312 633.933594 965.46875 691.90625 923.792969 705.105469 C 907.992188 710.113281 892.617188 708.507812 876.796875 700.210938 C 849.941406 686.121094 845.988281 639.761719 841.40625 586.089844 C 838.0625 546.914062 834.273438 502.515625 820.695312 464.351562 C 805.082031 420.464844 778.980469 391.792969 740.890625 376.699219 C 724.210938 370.089844 708.835938 369.039062 693.886719 373.496094 C 680.425781 377.503906 667.507812 385.960938 654.398438 399.335938 C 629.894531 424.34375 608.136719 463.25 585.109375 504.441406 C 572.644531 526.734375 559.753906 549.785156 545.769531 571.84375 C 499.007812 645.617188 448.566406 709.605469 346.335938 682.789062 C 341.394531 681.492188 336.542969 680.210938 331.796875 678.949219 C 275.128906 663.921875 233.210938 652.8125 208.574219 668.972656 Z M 208.574219 668.972656 " fill-opacity="1" fill-rule="nonzero"/></g></g></svg>