<svg preserveAspectRatio="none" id="visual" viewBox="0 0 900 450" width="900" height="450" xmlns="http://www.w3.org/2000/svg" xmlns:xlink="http://www.w3.org/1999/xlink" version="1.1"><rect x="0" y="0" width="900" height="450" fill="#E5FCFF"></rect><path d="M0 121L30 134.8C60 148.7 120 176.3 180 188.3C240 200.3 300 196.7 360 190.5C420 184.3 480 175.7 540 158.8C600 142 660 117 720 102.7C780 88.3 840 84.7 870 82.8L900 81L900 451L870 451C840 451 780 451 720 451C660 451 600 451 540 451C480 451 420 451 360 451C300 451 240 451 180 451C120 451 60 451 30 451L0 451Z" fill="#e5fcff"></path><path d="M0 183L30 176.2C60 169.3 120 155.7 180 152.5C240 149.3 300 156.7 360 165.5C420 174.3 480 184.7 540 177.7C600 170.7 660 146.3 720 137.5C780 128.7 840 135.3 870 138.7L900 142L900 451L870 451C840 451 780 451 720 451C660 451 600 451 540 451C480 451 420 451 360 451C300 451 240 451 180 451C120 451 60 451 30 451L0 451Z" fill="#d4f2fb"></path><path d="M0 197L30 194.2C60 191.3 120 185.7 180 193.5C240 201.3 300 222.7 360 219.2C420 215.7 480 187.3 540 175.5C600 163.7 660 168.3 720 161.7C780 155 840 137 870 128L900 119L900 451L870 451C840 451 780 451 720 451C660 451 600 451 540 451C480 451 420 451 360 451C300 451 240 451 180 451C120 451 60 451 30 451L0 451Z" fill="#c6e8f7"></path><path d="M0 264L30 261.7C60 259.3 120 254.7 180 249.8C240 245 300 240 360 235.7C420 231.3 480 227.7 540 234.8C600 242 660 260 720 268.5C780 277 840 276 870 275.5L900 275L900 451L870 451C840 451 780 451 720 451C660 451 600 451 540 451C480 451 420 451 360 451C300 451 240 451 180 451C120 451 60 451 30 451L0 451Z" fill="#b9ddf4"></path><path d="M0 230L30 238.5C60 247 120 264 180 260.3C240 256.7 300 232.3 360 223.8C420 215.3 480 222.7 540 234C600 245.3 660 260.7 720 268.5C780 276.3 840 276.7 870 276.8L900 277L900 451L870 451C840 451 780 451 720 451C660 451 600 451 540 451C480 451 420 451 360 451C300 451 240 451 180 451C120 451 60 451 30 451L0 451Z" fill="#b0d2f1"></path><path d="M0 261L30 271.7C60 282.3 120 303.7 180 300.8C240 298 300 271 360 269.7C420 268.3 480 292.7 540 305.5C600 318.3 660 319.7 720 307.2C780 294.7 840 268.3 870 255.2L900 242L900 451L870 451C840 451 780 451 720 451C660 451 600 451 540 451C480 451 420 451 360 451C300 451 240 451 180 451C120 451 60 451 30 451L0 451Z" fill="#abc6ed"></path><path d="M0 334L30 337.3C60 340.7 120 347.3 180 347.3C240 347.3 300 340.7 360 337.2C420 333.7 480 333.3 540 331.7C600 330 660 327 720 323.2C780 319.3 840 314.7 870 312.3L900 310L900 451L870 451C840 451 780 451 720 451C660 451 600 451 540 451C480 451 420 451 360 451C300 451 240 451 180 451C120 451 60 451 30 451L0 451Z" fill="#a9b9e7"></path><path d="M0 307L30 307C60 307 120 307 180 311.7C240 316.3 300 325.7 360 330.2C420 334.7 480 334.3 540 331.2C600 328 660 322 720 321C780 320 840 324 870 326L900 328L900 451L870 451C840 451 780 451 720 451C660 451 600 451 540 451C480 451 420 451 360 451C300 451 240 451 180 451C120 451 60 451 30 451L0 451Z" fill="#abacdf"></path><path d="M0 408L30 402.3C60 396.7 120 385.3 180 377.3C240 369.3 300 364.7 360 365.2C420 365.7 480 371.3 540 375.5C600 379.7 660 382.3 720 376.8C780 371.3 840 357.7 870 350.8L900 344L900 451L870 451C840 451 780 451 720 451C660 451 600 451 540 451C480 451 420 451 360 451C300 451 240 451 180 451C120 451 60 451 30 451L0 451Z" fill="#af9ed4"></path><path d="M0 388L30 388C60 388 120 388 180 394.8C240 401.7 300 415.3 360 421C420 426.7 480 424.3 540 418.8C600 413.3 660 404.7 720 404.8C780 405 840 414 870 418.5L900 423L900 451L870 451C840 451 780 451 720 451C660 451 600 451 540 451C480 451 420 451 360 451C300 451 240 451 180 451C120 451 60 451 30 451L0 451Z" fill="#b48fc6"></path></svg>