<svg height="417.6" viewBox="4.8 146.4 889.2 417.6" width="889.2" xmlns="http://www.w3.org/2000/svg"><path d="m0 0h900v600h-900z" fill="#2e0f1f"/><path d="m0 185 21.5 8.2c21.5 8.1 64.5 24.5 107.3 31.3 42.9 6.8 85.5 4.2 128.4 6 42.8 1.8 85.8 8.2 128.6 1 42.9-7.2 85.5-27.8 128.4-35.8 42.8-8 85.8-3.4 128.6 1.3 42.9 4.7 85.5 9.3 128.4-3.2 42.8-12.5 85.8-42.1 107.3-57l21.5-14.8v479h-21.5c-21.5 0-64.5 0-107.3 0-42.9 0-85.5 0-128.4 0-42.8 0-85.8 0-128.6 0-42.9 0-85.5 0-128.4 0-42.8 0-85.8 0-128.6 0-42.9 0-85.5 0-128.4 0-42.8 0-85.8 0-107.3 0h-21.5z" fill="#2e0f1f"/><path d="m0 263 21.5-13.7c21.5-13.6 64.5-41 107.3-41.5 42.9-.5 85.5 25.9 128.4 32.5 42.8 6.7 85.8-6.3 128.6-5.8 42.9.5 85.5 14.5 128.4 11.7 42.8-2.9 85.8-22.5 128.6-18.9 42.9 3.7 85.5 30.7 128.4 23.9 42.8-6.9 85.8-47.5 107.3-67.9l21.5-20.3v438h-21.5c-21.5 0-64.5 0-107.3 0-42.9 0-85.5 0-128.4 0-42.8 0-85.8 0-128.6 0-42.9 0-85.5 0-128.4 0-42.8 0-85.8 0-128.6 0-42.9 0-85.5 0-128.4 0-42.8 0-85.8 0-107.3 0h-21.5z" fill="#41293d"/><path d="m0 320 21.5-7.2c21.5-7.1 64.5-21.5 107.3-39.8 42.9-18.3 85.5-40.7 128.4-40.5 42.8.2 85.8 22.8 128.6 31.5 42.9 8.7 85.5 3.3 128.4 4 42.8.7 85.8 7.3 128.6-.2 42.9-7.5 85.5-29.1 128.4-30 42.8-.8 85.8 19.2 107.3 29.2l21.5 10v324h-21.5c-21.5 0-64.5 0-107.3 0-42.9 0-85.5 0-128.4 0-42.8 0-85.8 0-128.6 0-42.9 0-85.5 0-128.4 0-42.8 0-85.8 0-128.6 0-42.9 0-85.5 0-128.4 0-42.8 0-85.8 0-107.3 0h-21.5z" fill="#53445c"/><path d="m0 362 21.5-2.3c21.5-2.4 64.5-7 107.3-13.5 42.9-6.5 85.5-14.9 128.4-21.4 42.8-6.5 85.8-11.1 128.6-12.8 42.9-1.7 85.5-.3 128.4 7.7 42.8 8 85.8 22.6 128.6 30 42.9 7.3 85.5 7.3 128.4 2.5 42.8-4.9 85.8-14.5 107.3-19.4l21.5-4.8v273h-21.5c-21.5 0-64.5 0-107.3 0-42.9 0-85.5 0-128.4 0-42.8 0-85.8 0-128.6 0-42.9 0-85.5 0-128.4 0-42.8 0-85.8 0-128.6 0-42.9 0-85.5 0-128.4 0-42.8 0-85.8 0-107.3 0h-21.5z" fill="#646179"/><path d="m0 329 21.5 9.8c21.5 9.9 64.5 29.5 107.3 40.9 42.9 11.3 85.5 14.3 128.4 7.5 42.8-6.9 85.8-23.5 128.6-34.5 42.9-11 85.5-16.4 128.4-21.9 42.8-5.5 85.8-11.1 128.6-8.3 42.9 2.8 85.5 14.2 128.4 26.3 42.8 12.2 85.8 25.2 107.3 31.7l21.5 6.5v214h-21.5c-21.5 0-64.5 0-107.3 0-42.9 0-85.5 0-128.4 0-42.8 0-85.8 0-128.6 0-42.9 0-85.5 0-128.4 0-42.8 0-85.8 0-128.6 0-42.9 0-85.5 0-128.4 0-42.8 0-85.8 0-107.3 0h-21.5z" fill="#777f96"/><path d="m0 435 21.5-.5c21.5-.5 64.5-1.5 107.3-10.5 42.9-9 85.5-26 128.4-28.8 42.8-2.9 85.8 8.5 128.6 10.1 42.9 1.7 85.5-6.3 128.4-2.5 42.8 3.9 85.8 19.5 128.6 19.9 42.9.3 85.5-14.7 128.4-16.2 42.8-1.5 85.8 10.5 107.3 16.5l21.5 6v172h-21.5c-21.5 0-64.5 0-107.3 0-42.9 0-85.5 0-128.4 0-42.8 0-85.8 0-128.6 0-42.9 0-85.5 0-128.4 0-42.8 0-85.8 0-128.6 0-42.9 0-85.5 0-128.4 0-42.8 0-85.8 0-107.3 0h-21.5z" fill="#8d9eb1"/><path d="m0 484 21.5-2c21.5-2 64.5-6 107.3-14.7 42.9-8.6 85.5-22 128.4-20.8 42.8 1.2 85.8 16.8 128.6 22.8 42.9 6 85.5 2.4 128.4-5.8 42.8-8.2 85.8-20.8 128.6-26.5 42.9-5.7 85.5-4.3 128.4-.3 42.8 4 85.8 10.6 107.3 14l21.5 3.3v147h-21.5c-21.5 0-64.5 0-107.3 0-42.9 0-85.5 0-128.4 0-42.8 0-85.8 0-128.6 0-42.9 0-85.5 0-128.4 0-42.8 0-85.8 0-128.6 0-42.9 0-85.5 0-128.4 0-42.8 0-85.8 0-107.3 0h-21.5z" fill="#a7bdcb"/><path d="m0 523 21.5-9.2c21.5-9.1 64.5-27.5 107.3-37.1 42.9-9.7 85.5-10.7 128.4-2.7 42.8 8 85.8 25 128.6 31.2 42.9 6.1 85.5 1.5 128.4-2.9 42.8-4.3 85.8-8.3 128.6-8.8 42.9-.5 85.5 2.5 128.4 7.2 42.8 4.6 85.8 11 107.3 14.1l21.5 3.2v83h-21.5c-21.5 0-64.5 0-107.3 0-42.9 0-85.5 0-128.4 0-42.8 0-85.8 0-128.6 0-42.9 0-85.5 0-128.4 0-42.8 0-85.8 0-128.6 0-42.9 0-85.5 0-128.4 0-42.8 0-85.8 0-107.3 0h-21.5z" fill="#c4dce5"/><path d="m0 530h21.5c21.5 0 64.5 0 107.3 2.7 42.9 2.6 85.5 8 128.4 7.3 42.8-.7 85.8-7.3 128.6-9.8 42.9-2.5 85.5-.9 128.4-.5 42.8.3 85.8-.7 128.6-.7 42.9 0 85.5 1 128.4 3.3 42.8 2.4 85.8 6 107.3 7.9l21.5 1.8v59h-21.5c-21.5 0-64.5 0-107.3 0-42.9 0-85.5 0-128.4 0-42.8 0-85.8 0-128.6 0-42.9 0-85.5 0-128.4 0-42.8 0-85.8 0-128.6 0-42.9 0-85.5 0-128.4 0-42.8 0-85.8 0-107.3 0h-21.5z" fill="#e5fcff"/></svg>